<svg xmlns="http://www.w3.org/2000/svg" xmlns:xlink="http://www.w3.org/1999/xlink" zoomAndPan="magnify" preserveAspectRatio="xMidYMid meet" version="1.0" viewBox="56.15 118.22 287.07 36.03"><defs><g/><clipPath id="a80adaa324"><path d="M 56.144531 122 L 98 122 L 98 150 L 56.144531 150 Z M 56.144531 122 " clip-rule="nonzero"/></clipPath><clipPath id="afef166216"><path d="M 80 118.226562 L 107.144531 118.226562 L 107.144531 150 L 80 150 Z M 80 118.226562 " clip-rule="nonzero"/></clipPath><clipPath id="f081eabf2c"><path d="M 63 138 L 81 138 L 81 154.226562 L 63 154.226562 Z M 63 138 " clip-rule="nonzero"/></clipPath><clipPath id="a0e9418512"><path d="M 66 130 L 100 130 L 100 154.226562 L 66 154.226562 Z M 66 130 " clip-rule="nonzero"/></clipPath><clipPath id="b6334b9e34"><path d="M 73 142 L 90 142 L 90 154.226562 L 73 154.226562 Z M 73 142 " clip-rule="nonzero"/></clipPath></defs><g clip-path="url(#a80adaa324)"><path fill="#000000" d="M 79.003906 125.507812 L 80.585938 127.925781 L 81.644531 129.554688 L 94.875 149.800781 L 97.003906 149.800781 L 82.390625 127.445312 L 81.644531 126.308594 L 80.066406 123.886719 L 79.003906 122.269531 L 63.390625 146.15625 L 58.425781 129.992188 L 56.152344 128.628906 L 62.253906 148.480469 L 62.65625 149.800781 L 63.125 149.800781 L 63.839844 148.707031 Z M 79.003906 125.507812 " fill-opacity="1" fill-rule="evenodd"/></g><path fill="#000000" d="M 101.472656 132.035156 L 99.199219 133.398438 L 97.773438 138.050781 L 99.039062 139.984375 Z M 101.472656 132.035156 " fill-opacity="1" fill-rule="evenodd"/><path fill="#000000" d="M 65.519531 138.050781 L 64.089844 133.398438 L 61.820312 132.035156 L 64.253906 139.984375 Z M 65.519531 138.050781 " fill-opacity="1" fill-rule="evenodd"/><g clip-path="url(#afef166216)"><path fill="#000000" d="M 104.867188 129.992188 L 99.902344 146.15625 L 82.390625 119.363281 L 81.644531 118.226562 L 80.902344 119.363281 L 80.53125 119.9375 L 81.644531 121.46875 L 99.453125 148.707031 L 100.167969 149.800781 L 100.636719 149.800781 L 101.039062 148.480469 L 107.140625 128.628906 Z M 104.867188 129.992188 " fill-opacity="1" fill-rule="evenodd"/></g><g clip-path="url(#f081eabf2c)"><path fill="#000000" d="M 79.003906 138.429688 L 71.574219 149.796875 L 71.570312 149.800781 L 69.835938 152.449219 L 63.464844 152.453125 L 64.007812 154.226562 L 70.796875 154.226562 L 73.691406 149.800781 L 80.066406 140.050781 Z M 79.003906 138.429688 " fill-opacity="1" fill-rule="evenodd"/></g><g clip-path="url(#a0e9418512)"><path fill="#000000" d="M 91.722656 149.800781 C 87.832031 143.855469 83.953125 137.914062 80.066406 131.96875 L 79.566406 131.199219 L 79.003906 130.339844 L 66.28125 149.800781 L 68.417969 149.800781 L 79.011719 133.59375 C 82.503906 138.9375 86.0625 144.382812 89.601562 149.796875 L 92.496094 154.222656 L 99.285156 154.222656 L 99.828125 152.445312 L 93.457031 152.445312 Z M 91.722656 149.800781 " fill-opacity="1" fill-rule="evenodd"/></g><g clip-path="url(#b6334b9e34)"><path fill="#000000" d="M 73.960938 154.226562 L 89.332031 154.226562 L 81.644531 142.472656 Z M 81.644531 152.449219 L 77.246094 152.449219 L 81.644531 145.714844 L 86.050781 152.449219 Z M 81.644531 152.449219 " fill-opacity="1" fill-rule="evenodd"/></g><g fill="#000000" fill-opacity="1"><g transform="translate(109.425335, 150.902232)"><g><path d="M 2.15625 -19.597656 L 2.15625 0 L 5.570312 0 L 5.570312 -7.335938 L 17.527344 -7.335938 L 17.527344 -10.273438 L 5.570312 -10.273438 L 5.570312 -16.660156 L 19.402344 -16.660156 L 19.402344 -19.597656 Z M 2.15625 -19.597656 "/></g></g></g><g fill="#000000" fill-opacity="1"><g transform="translate(129.918543, 150.902232)"><g><path d="M 2.15625 0 L 5.570312 0 L 5.570312 -19.597656 L 2.15625 -19.597656 Z M 2.15625 0 "/></g></g></g><g fill="#000000" fill-opacity="1"><g transform="translate(137.617498, 150.902232)"><g><path d="M 0.785156 -19.597656 L 0.785156 -16.714844 L 9.996094 -16.714844 L 9.996094 0 L 13.4375 0 L 13.4375 -16.714844 L 22.648438 -16.714844 L 22.648438 -19.597656 Z M 0.785156 -19.597656 "/></g></g></g><g fill="#000000" fill-opacity="1"><g transform="translate(161.078297, 150.902232)"><g/></g></g><g fill="#000000" fill-opacity="1"><g transform="translate(167.881374, 150.902232)"><g><path d="M 5.570312 -2.941406 L 5.570312 -8.34375 L 17.554688 -8.34375 L 17.554688 -11.28125 L 5.570312 -11.28125 L 5.570312 -16.660156 L 19.457031 -16.660156 L 19.457031 -19.597656 L 2.15625 -19.597656 L 2.15625 0 L 19.625 0 L 19.625 -2.941406 Z M 5.570312 -2.941406 "/></g></g></g><g fill="#000000" fill-opacity="1"><g transform="translate(188.878512, 150.902232)"><g><path d="M 2.15625 0 L 5.570312 0 L 5.570312 -13.664062 L 13.550781 0 L 14.8125 0 L 22.789062 -13.664062 L 22.789062 0 L 26.234375 0 L 26.234375 -19.597656 L 22.789062 -19.597656 L 14.195312 -4.816406 L 5.570312 -19.597656 L 2.15625 -19.597656 Z M 2.15625 0 "/></g></g></g><g fill="#000000" fill-opacity="1"><g transform="translate(217.23864, 150.902232)"><g><path d="M 2.15625 0 L 5.570312 0 L 5.570312 -7.054688 L 12.65625 -7.054688 C 16.882812 -7.054688 19.011719 -10.191406 19.011719 -13.328125 C 19.011719 -16.460938 16.882812 -19.597656 12.65625 -19.597656 L 2.15625 -19.597656 Z M 5.570312 -16.628906 L 12.375 -16.628906 C 14.53125 -16.628906 15.621094 -14.980469 15.621094 -13.328125 C 15.621094 -11.675781 14.53125 -10.023438 12.375 -10.023438 L 5.570312 -10.023438 Z M 5.570312 -16.628906 "/></g></g></g><g fill="#000000" fill-opacity="1"><g transform="translate(237.815837, 150.902232)"><g><path d="M 23.769531 -9.800781 C 23.769531 -16.742188 17.804688 -20.128906 12.683594 -20.128906 C 7.585938 -20.128906 1.625 -16.742188 1.625 -9.800781 C 1.625 -2.855469 7.585938 0.53125 12.683594 0.53125 C 17.804688 0.53125 23.769531 -2.855469 23.769531 -9.800781 Z M 20.269531 -9.800781 C 20.269531 -5.039062 16.183594 -2.6875 12.683594 -2.6875 C 9.210938 -2.6875 5.125 -5.039062 5.125 -9.800781 C 5.125 -14.558594 9.210938 -16.910156 12.683594 -16.910156 C 16.183594 -16.910156 20.269531 -14.558594 20.269531 -9.800781 Z M 20.269531 -9.800781 "/></g></g></g><g fill="#000000" fill-opacity="1"><g transform="translate(263.208375, 150.902232)"><g><path d="M 2.15625 0 L 5.570312 0 L 5.570312 -7.867188 L 11.953125 -7.867188 L 17.804688 0 L 22.117188 0 L 15.707031 -8.121094 C 18.589844 -8.902344 20.019531 -11.3125 20.019531 -13.71875 C 20.019531 -16.660156 17.917969 -19.597656 13.664062 -19.597656 L 2.15625 -19.597656 Z M 5.570312 -16.628906 L 13.046875 -16.628906 C 15.316406 -16.628906 16.460938 -15.175781 16.460938 -13.71875 C 16.460938 -12.261719 15.316406 -10.835938 13.046875 -10.835938 L 5.570312 -10.835938 Z M 5.570312 -16.628906 "/></g></g></g><g fill="#000000" fill-opacity="1"><g transform="translate(286.249233, 150.902232)"><g><path d="M 2.15625 0 L 5.570312 0 L 5.570312 -19.597656 L 2.15625 -19.597656 Z M 2.15625 0 "/></g></g></g><g fill="#000000" fill-opacity="1"><g transform="translate(293.948188, 150.902232)"><g><path d="M 1.875 -7.753906 C 1.875 -2.128906 6.691406 0.699219 11.507812 0.699219 C 16.324219 0.699219 21.136719 -2.128906 21.136719 -7.753906 L 21.136719 -19.597656 L 17.722656 -19.597656 L 17.722656 -7.753906 C 17.722656 -4.339844 14.613281 -2.660156 11.507812 -2.660156 C 8.398438 -2.660156 5.292969 -4.339844 5.292969 -7.753906 L 5.292969 -19.597656 L 1.875 -19.597656 Z M 1.875 -7.753906 "/></g></g></g><g fill="#000000" fill-opacity="1"><g transform="translate(316.961042, 150.902232)"><g><path d="M 2.15625 0 L 5.570312 0 L 5.570312 -13.664062 L 13.550781 0 L 14.8125 0 L 22.789062 -13.664062 L 22.789062 0 L 26.234375 0 L 26.234375 -19.597656 L 22.789062 -19.597656 L 14.195312 -4.816406 L 5.570312 -19.597656 L 2.15625 -19.597656 Z M 2.15625 0 "/></g></g></g></svg>