<svg xmlns="http://www.w3.org/2000/svg" xmlns:xlink="http://www.w3.org/1999/xlink" width="1000" zoomAndPan="magnify" viewBox="0 0 750 525.000007" height="700" preserveAspectRatio="xMidYMid meet" version="1.0"><defs><clipPath id="f2cc57dfbf"><path d="M 0.714844 0 L 749.285156 0 L 749.285156 524 L 0.714844 524 Z M 0.714844 0 " clip-rule="nonzero"/></clipPath><clipPath id="c5e364d0ff"><path d="M 1.085938 57 L 600 57 L 600 461 L 1.085938 461 Z M 1.085938 57 " clip-rule="nonzero"/></clipPath><clipPath id="d6c3427143"><path d="M 358 0 L 748.070312 0 L 748.070312 461 L 358 461 Z M 358 0 " clip-rule="nonzero"/></clipPath><clipPath id="2bf420c5d0"><path d="M 108 294 L 352 294 L 352 524 L 108 524 Z M 108 294 " clip-rule="nonzero"/></clipPath><clipPath id="ee322003a6"><path d="M 149 175 L 641 175 L 641 524 L 149 524 Z M 149 175 " clip-rule="nonzero"/></clipPath><clipPath id="0de2cca6ed"><path d="M 262 353 L 488 353 L 488 524 L 262 524 Z M 262 353 " clip-rule="nonzero"/></clipPath></defs><g clip-path="url(#f2cc57dfbf)"><path fill="#ffffff" d="M 0.714844 0 L 749.285156 0 L 749.285156 524 L 0.714844 524 Z M 0.714844 0 " fill-opacity="1" fill-rule="nonzero"/><path fill="#ffffff" d="M 0.714844 0 L 749.285156 0 L 749.285156 524 L 0.714844 524 Z M 0.714844 0 " fill-opacity="1" fill-rule="nonzero"/></g><g clip-path="url(#c5e364d0ff)"><path fill="#000000" d="M 335.902344 104.867188 L 359.070312 140.285156 L 374.578125 164.144531 L 568.359375 460.695312 L 599.542969 460.695312 L 385.503906 133.246094 L 374.578125 116.597656 L 351.460938 81.125 L 335.902344 57.4375 L 107.214844 407.3125 L 34.496094 170.554688 L 1.199219 150.585938 L 90.566406 441.359375 L 96.460938 460.695312 L 103.324219 460.695312 L 113.796875 444.675781 Z M 335.902344 104.867188 " fill-opacity="1" fill-rule="evenodd"/></g><path fill="#000000" d="M 664.996094 200.476562 L 631.695312 220.445312 L 610.8125 288.589844 L 629.351562 316.914062 Z M 664.996094 200.476562 " fill-opacity="1" fill-rule="evenodd"/><path fill="#000000" d="M 138.398438 288.589844 L 117.457031 220.445312 L 84.214844 200.476562 L 119.859375 316.914062 Z M 138.398438 288.589844 " fill-opacity="1" fill-rule="evenodd"/><g clip-path="url(#d6c3427143)"><path fill="#000000" d="M 714.714844 170.554688 L 641.996094 407.3125 L 385.503906 14.867188 L 374.578125 -1.78125 L 363.707031 14.867188 L 358.269531 23.277344 L 374.578125 45.707031 L 635.414062 444.675781 L 645.886719 460.695312 L 652.75 460.695312 L 658.644531 441.359375 L 748.011719 150.585938 Z M 714.714844 170.554688 " fill-opacity="1" fill-rule="evenodd"/></g><g clip-path="url(#2bf420c5d0)"><path fill="#000000" d="M 335.902344 294.140625 L 227.078125 460.640625 L 227.023438 460.695312 L 201.621094 499.488281 L 108.304688 499.546875 L 116.257812 525.523438 L 215.695312 525.523438 L 258.089844 460.695312 L 351.460938 317.886719 Z M 335.902344 294.140625 " fill-opacity="1" fill-rule="evenodd"/></g><g clip-path="url(#ee322003a6)"><path fill="#000000" d="M 522.1875 460.695312 C 465.203125 373.613281 408.390625 286.585938 351.460938 199.503906 L 344.140625 188.234375 L 335.902344 175.644531 L 149.554688 460.695312 L 180.851562 460.695312 L 336.015625 223.304688 C 387.164062 301.578125 439.285156 381.335938 491.121094 460.640625 L 533.515625 525.464844 L 632.957031 525.464844 L 640.90625 499.433594 L 547.59375 499.433594 Z M 522.1875 460.695312 " fill-opacity="1" fill-rule="evenodd"/></g><g clip-path="url(#0de2cca6ed)"><path fill="#000000" d="M 262.039062 525.523438 L 487.175781 525.523438 L 374.578125 353.359375 Z M 374.578125 499.488281 L 310.152344 499.488281 L 374.578125 400.847656 L 439.113281 499.488281 Z M 374.578125 499.488281 " fill-opacity="1" fill-rule="evenodd"/></g></svg>