<svg class="w-10 h-10" viewBox="0 0 86 92" fill="none" xmlns="http://www.w3.org/2000/svg">
                          <path d="M15.8148 48.858C19.3966 48.3487 22.1228 48.347 22.1793 52.4583C22.2247 55.7618 21.5512 59.0663 21.3564 62.3623C20.9393 69.4188 20.8935 75.0085 25.9907 80.1055C35.3158 89.4301 52.0674 89.9295 63.6983 85.5902C70.865 82.9164 77.2107 77.1852 81.0118 70.5899C83.7072 65.9129 83.2102 62.6359 79.3698 58.9932C75.0148 54.8623 70.3715 51.0917 70.0033 44.6171C69.5859 37.2754 73.6285 31.0196 75.9151 24.3104C77.705 19.0589 78.4348 12.3403 74.2425 7.97605C69.0889 2.61111 62.0953 3.21081 55.8078 5.76738C49.069 8.50747 43.5883 13.7255 36.558 15.8028C30.8983 17.475 25.2031 16.3799 19.4948 17.367C13.2803 18.4416 8.17646 21.8405 5.66954 27.7265C3.96155 31.7367 3.29242 36.8459 4.83513 41.0054C5.68251 43.2901 7.6412 44.608 9.84349 45.3307C12.6637 46.2561 14.6426 48.1157 17.731 48.4782M17.5431 23.7605C17.3789 23.8983 17.2149 24.0379 17.051 24.1788M17.051 24.1788C15.9357 25.138 14.8258 26.1618 13.6907 27.143M17.051 24.1788C17.0004 24.1433 17.0227 24.0295 17.1517 23.8055C17.2894 23.5663 17.4342 23.333 17.5847 23.1042M17.051 24.1788C17.1994 24.2832 17.9746 23.7144 18.5172 23.2857M13.6907 27.143C13.5688 27.2484 13.4465 27.3533 13.324 27.4576M13.6907 27.143C13.6487 27.2796 13.6029 27.4195 13.554 27.5617C13.1721 28.6721 12.6362 29.8179 11.9986 30.9301M13.6907 27.143C13.7022 27.1057 13.7134 27.0686 13.7243 27.0318M13.324 27.4576C12.5341 28.1298 11.7306 28.776 10.9032 29.3608C10.6955 29.5077 11.1762 28.9312 11.3244 28.7245C11.9957 27.7884 12.719 26.8878 13.4359 25.9843M13.324 27.4576C13.4572 27.3156 13.5906 27.1736 13.7243 27.0318M13.324 27.4576C13.3094 27.4732 13.2947 27.4888 13.2801 27.5045L13.2007 27.5891C11.4776 29.4273 9.73831 31.2827 8.12095 33.2243M13.4359 25.9843C13.6002 25.7773 13.7641 25.5702 13.927 25.3624M13.4359 25.9843C13.6104 25.8361 13.7853 25.6884 13.9606 25.541M13.4359 25.9843C13.1007 26.2691 12.767 26.5556 12.4354 26.8445C12.1818 27.0654 11.651 27.694 11.472 27.8446M13.927 25.3624C13.9875 25.2853 14.0478 25.2081 14.1079 25.1308C14.2098 24.9999 15.5341 23.1677 15.2403 23.1898C14.7667 23.2253 14.2834 23.533 13.8332 23.9248M13.927 25.3624C13.9426 25.4167 13.9537 25.4764 13.9606 25.541M13.927 25.3624C13.8481 25.0879 13.6528 24.9501 13.2994 25.0106M13.8332 23.9248C13.7656 23.9836 13.6988 24.0442 13.6329 24.1062M13.8332 23.9248C13.7856 24.0632 13.7208 24.2202 13.6379 24.3938C13.5364 24.6061 13.4221 24.8109 13.2994 25.0106M13.8332 23.9248C13.8559 23.8586 13.8747 23.7967 13.8897 23.7393M13.6329 24.1062C13.3558 24.3665 13.0945 24.6491 12.8596 24.9067M13.6329 24.1062C13.3805 24.4611 13.1781 24.7314 13.1076 24.834C13.0382 24.9351 12.9684 25.036 12.8982 25.1368M13.6329 24.1062C13.7142 23.9918 13.8008 23.8685 13.8897 23.7393M12.8596 24.9067C12.6986 25.0832 12.5501 25.248 12.4174 25.3859M12.8596 24.9067C12.8512 24.946 12.8416 24.9872 12.8306 25.0301C12.8197 25.073 12.8022 25.127 12.7786 25.1911M12.8596 24.9067C12.9339 24.5575 12.9092 24.3485 12.8147 24.2443M12.4174 25.3859C12.4075 25.3961 12.3978 25.4062 12.3881 25.4162C12.0283 25.7856 11.6758 26.1572 11.3337 26.5376M12.4174 25.3859C12.5471 25.309 12.6674 25.2443 12.7786 25.1911M12.4174 25.3859C12.2973 25.457 12.1692 25.5387 12.0325 25.6313C11.9446 25.6909 11.8586 25.7525 11.7745 25.8158M11.3337 26.5376C10.9816 26.9291 10.6406 27.3301 10.3142 27.7479C10.1593 27.9461 10.4968 27.253 10.7652 26.7349M11.3337 26.5376C11.4782 26.2953 11.6251 26.0546 11.7745 25.8158M11.3337 26.5376C10.9175 27.2354 10.5211 27.9466 10.142 28.6656M10.7652 26.7349C10.886 26.5016 10.9928 26.3039 11.0345 26.2387C11.1916 25.9927 11.9855 24.9185 12.2939 24.2318M10.7652 26.7349C11.0747 26.402 11.4076 26.0918 11.7745 25.8158M10.7652 26.7349C10.2769 27.26 9.84654 27.8414 9.43209 28.4338C9.14552 28.8434 8.52549 29.6903 8.00913 30.6083M12.2939 24.2318C12.3857 24.0273 12.4345 23.8572 12.4105 23.7536M12.2939 24.2318C12.5253 24.1417 12.7116 24.1305 12.8147 24.2443M12.2939 24.2318C12.0294 24.3348 11.7058 24.5409 11.38 24.7812M12.4105 23.7536C12.4063 23.7355 12.3999 23.7194 12.3911 23.7055C12.3326 23.6133 12.1193 23.7548 11.8695 23.9747M12.4105 23.7536C12.1411 24.0295 11.8715 24.3046 11.5991 24.5754C11.5556 24.6186 11.478 24.6913 11.38 24.7812M12.4105 23.7536C13.2418 22.9023 14.0717 22.0426 14.977 21.2762C15.6205 20.7314 13.9786 22.5099 13.776 22.7472C13.6704 22.871 12.5789 24.2614 12.9747 24.0184M11.8695 23.9747C11.4476 24.346 10.9215 24.9408 10.8605 25.0103C10.8013 25.0776 10.6841 25.2544 10.5442 25.4565M11.8695 23.9747C13.1239 22.2417 14.6629 20.3717 15.1052 20.9199C15.327 21.1947 15.0273 21.8986 14.5962 22.6381M11.8695 23.9747C11.6362 24.297 11.4127 24.6146 11.208 24.9111M10.5442 25.4565C10.5037 25.5151 10.4612 25.5758 10.4177 25.6366M10.5442 25.4565C10.7478 25.28 10.9759 25.0899 11.208 24.9111M10.5442 25.4565C10.3827 25.5965 10.2367 25.7279 10.1165 25.8381M10.4177 25.6366C10.1811 25.9671 9.91339 26.2999 9.75256 26.3058C9.70253 26.3077 9.66252 26.3039 9.63157 26.295M10.4177 25.6366C10.1958 25.8275 10.0411 25.9534 10.0685 25.9114C10.0844 25.8869 10.1004 25.8625 10.1165 25.8381M10.4177 25.6366C10.6363 25.4485 10.9201 25.1973 11.159 24.982M9.63157 26.295C9.18317 26.1662 10.6353 24.9691 11.0787 24.3953C11.1483 24.3053 11.3801 24.0046 11.6109 23.6972M9.63157 26.295C9.70073 26.2291 9.76958 26.1635 9.83802 26.0983C9.89576 26.0433 9.99237 25.952 10.1165 25.8381M9.63157 26.295C8.1041 27.751 6.42355 29.3849 5.53759 31.3187C4.92242 32.6614 6.62815 31.6056 7.89222 30.6932M11.6109 23.6972C11.673 23.6145 11.735 23.5313 11.7938 23.4515M11.6109 23.6972C11.5267 23.774 11.4422 23.8503 11.3575 23.926M11.6109 23.6972C12.4158 22.9627 13.1942 22.1811 13.9302 21.3838C14.041 21.2637 12.7984 22.6247 12.5277 22.9357C11.7041 23.8819 10.8118 24.7888 10.1165 25.8381M11.7938 23.4515C12.0691 23.0781 12.273 22.7814 12.0783 22.97C11.5533 23.4787 11.0596 24.0257 10.5834 24.5844M11.7938 23.4515C11.6496 23.6107 11.5039 23.7687 11.3575 23.926M11.7938 23.4515C12.1827 23.0223 12.5606 22.5846 12.913 22.1292C13.2644 21.6752 13.7194 20.9959 12.9725 21.7904C12.5597 22.2297 9.66495 25.2764 10.5834 24.5844M10.5834 24.5844C10.3861 24.8158 10.1919 25.0492 9.99979 25.2826C9.83722 25.4802 9.30042 26.1567 9.81513 25.584C10.3171 25.0255 10.842 24.4799 11.3575 23.926M10.5834 24.5844C10.7007 24.496 10.8803 24.3466 11.1352 24.1229C11.2095 24.0577 11.2836 23.9921 11.3575 23.926M11.159 24.982C11.2391 24.9098 11.3142 24.8416 11.38 24.7812M11.159 24.982C11.1752 24.9585 11.1915 24.9348 11.208 24.9111M11.159 24.982C10.5914 25.8063 10.1779 26.4525 10.1165 26.5538C9.48151 27.6024 8.59448 29.0981 7.89222 30.6932M11.38 24.7812C11.3226 24.8236 11.2652 24.867 11.208 24.9111M12.9747 24.0184C12.9906 24.0086 13.0089 23.9962 13.0298 23.981C13.3302 23.7617 13.6175 23.5262 13.8969 23.2811M12.9747 24.0184C12.9778 24.0141 12.9809 24.0097 12.984 24.0054C13.4651 23.3329 13.7901 23.1314 13.8969 23.2811M12.9747 24.0184C12.9211 24.0934 12.8678 24.1687 12.8147 24.2443M13.8969 23.2811C14.1347 23.0724 14.3667 22.8567 14.5962 22.6381M13.8969 23.2811C13.9492 23.3543 13.9493 23.5118 13.8897 23.7393M14.5962 22.6381C15.2138 22.0496 15.8131 21.4394 16.4565 20.8855C18.7479 18.9132 14.9583 22.5408 15.2876 22.7396C15.6097 22.9341 17.8925 20.5275 18.0726 20.3606C18.5154 19.9503 20.3627 17.9838 19.0447 19.5015C18.4204 20.2204 17.6082 20.9976 17.1631 21.8423C16.7497 22.627 18.6282 20.8334 19.2874 20.24C19.4281 20.1134 21.2101 18.4076 20.6288 19.1719C20.1582 19.7905 19.6628 20.3859 19.1753 20.9861M14.5962 22.6381C14.3776 23.0131 14.1251 23.3973 13.8897 23.7393M19.1753 20.9861C18.6184 21.6718 18.0718 22.3639 17.5847 23.1042M19.1753 20.9861C19.6331 20.6866 20.0951 20.454 20.5548 20.3293C20.6167 20.3125 20.5318 20.4752 20.3646 20.7346M19.1753 20.9861C17.6822 21.9628 16.2335 23.6512 15.0541 24.6288C14.6886 24.9317 14.3239 25.2355 13.9606 25.541M17.5847 23.1042C18.1072 22.6031 18.6367 22.1104 19.1745 21.6287C19.2138 21.5934 19.9278 20.942 20.3646 20.7346M17.5847 23.1042C16.2601 24.3747 14.9804 25.6988 13.7243 27.0318M18.5172 23.2857C18.7938 23.0671 19.0099 22.885 19.0516 22.8472C19.543 22.4011 20.0456 21.9569 20.5447 21.5066M18.5172 23.2857C18.441 23.3841 18.3868 23.4525 18.3626 23.4805C16.8751 25.1974 15.1523 26.8137 13.802 28.6406C13.4792 29.0772 13.555 29.0656 13.8637 28.7925M18.5172 23.2857C18.9178 22.7677 19.9252 21.4167 20.3646 20.7346M20.5447 21.5066C21.1163 20.9907 21.6832 20.4668 22.2229 19.9227M20.5447 21.5066C20.5017 21.618 20.451 21.7314 20.3938 21.8461M20.5447 21.5066C20.6361 21.269 20.692 21.0407 20.699 20.8283C20.7053 20.6378 20.5637 20.6401 20.3646 20.7346M22.2229 19.9227C22.4723 19.6713 22.7159 19.4155 22.9515 19.1543C22.9882 19.1135 22.6458 19.4756 22.2229 19.9227ZM22.2229 19.9227C21.7109 20.464 21.0811 21.1299 20.8638 21.3563C20.7072 21.5195 20.5504 21.6827 20.3938 21.8461M20.3938 21.8461C20.1024 22.1503 19.8119 22.4554 19.5247 22.7636M20.3938 21.8461C20.3724 21.8889 20.3502 21.9319 20.3271 21.975M19.5247 22.7636C19.2359 23.0734 18.9505 23.3862 18.6709 23.704C18.3657 24.051 17.3217 24.8752 17.7682 24.7562C17.8714 24.7287 17.9752 24.6916 18.0793 24.6461M19.5247 22.7636C19.7909 22.499 20.0583 22.2362 20.3271 21.975M19.5247 22.7636C17.5739 24.7021 15.692 26.7285 13.8637 28.7925M18.0793 24.6461C18.2457 24.5733 18.4131 24.479 18.5806 24.3676M18.0793 24.6461C18.0848 24.641 18.0902 24.636 18.0955 24.6311C18.4683 24.2865 18.8396 23.9403 19.2097 23.5929M18.0793 24.6461C17.0316 25.6174 14.6643 28.0844 13.8637 28.7925M18.5806 24.3676C19.5766 23.7051 20.5768 22.4382 21.407 21.5109M18.5806 24.3676C18.4031 24.5859 18.2464 24.7827 18.1276 24.9492C17.9861 25.1475 17.8442 25.3455 17.7018 25.5432M18.5806 24.3676C18.773 24.1309 18.9899 23.869 19.2097 23.5929M21.407 21.5109C21.6318 21.2599 21.844 21.0337 22.0404 20.8512C22.2192 20.685 22.4753 20.4466 22.7585 20.1829M21.407 21.5109C21.7636 21.1709 22.1199 20.8307 22.4764 20.4906M21.407 21.5109C20.6767 22.2072 19.9454 22.9023 19.2097 23.5929M22.7585 20.1829C23.7827 19.2292 25.1612 17.945 24.5187 18.5508C23.8356 19.1949 23.1557 19.8425 22.4764 20.4906M22.7585 20.1829C22.6679 20.2821 22.5737 20.3848 22.4764 20.4906M22.7585 20.1829C24.0632 18.7543 24.6448 18.0313 23.4627 19.0711C22.3968 20.0087 21.3524 20.9791 20.3271 21.975M22.4764 20.4906C21.1697 21.9107 19.2961 23.8814 17.7018 25.5432M19.2097 23.5929C19.619 23.0787 20.0381 22.5154 20.3271 21.975M13.8637 28.7925C13.2359 29.5013 12.6144 30.2145 11.9986 30.9301M13.9606 25.541C13.9995 25.9091 13.9008 26.4356 13.7243 27.0318M11.472 27.8446C11.4084 27.8981 11.3892 27.8913 11.4427 27.7845C11.596 27.4779 11.7775 27.1853 11.9727 26.8986M11.472 27.8446C10.4274 29.7757 9.02341 32.1302 8.1429 33.1574M11.472 27.8446C11.6509 27.5139 11.8193 27.1957 11.9727 26.8986M11.9727 26.8986C12.4016 26.2685 12.896 25.6672 13.2994 25.0106M11.9727 26.8986C12.2725 26.3179 12.5152 25.8183 12.6675 25.4654M13.2994 25.0106C13.1833 25.0305 13.05 25.0718 12.8982 25.1368M12.8147 24.2443C12.4547 24.7573 12.1083 25.2819 11.7745 25.8158M10.142 28.6656C9.65277 29.5933 9.19217 30.5342 8.75453 31.4766C8.69681 31.6009 8.41877 32.3197 8.1429 33.1574M10.142 28.6656C9.80796 29.0381 9.46433 29.4009 9.11009 29.7515C9.04208 29.8188 8.58262 30.1895 8.00913 30.6083M10.142 28.6656C11.0486 27.6545 11.8841 26.5716 12.6675 25.4654M8.1429 33.1574C8.13558 33.1796 8.12826 33.2019 8.12095 33.2243M8.1429 33.1574C7.77217 33.5899 7.49423 33.7871 7.37496 33.6183C7.13137 33.2736 7.14105 32.7795 7.29432 32.2278M8.12095 33.2243C7.78955 34.2387 7.46981 35.4067 7.54863 35.901M8.12095 33.2243C7.74614 33.6742 7.37787 34.1288 7.01786 34.5889C6.99863 34.6134 6.90246 34.7425 6.7643 34.9337M7.54863 35.901C7.55429 35.9365 7.56201 35.9685 7.57192 35.9967M7.54863 35.901C7.37518 36.0907 7.18527 36.2932 6.98749 36.4884M7.54863 35.901C7.82479 35.599 8.05923 35.3297 8.21735 35.1748C8.59212 34.8078 8.96581 34.4396 9.33852 34.0704M7.57192 35.9967C7.65517 36.2339 7.89342 36.2045 8.37148 35.7272C9.3824 34.718 10.3665 33.4946 11.2289 32.1822M7.57192 35.9967C8.1891 35.3284 8.76046 34.7632 8.98343 34.4958C9.10161 34.354 9.21997 34.2122 9.33852 34.0704M7.57192 35.9967C7.39299 36.1905 7.2102 36.393 7.03094 36.5994M11.2289 32.1822C11.4983 31.7722 11.7558 31.3536 11.9986 30.9301M11.2289 32.1822C10.6012 32.8141 9.97127 33.4437 9.33852 34.0704M11.2289 32.1822C12.6453 30.7564 14.0502 29.3191 15.4501 27.8776C16.0182 27.2926 16.817 26.4654 17.7018 25.5432M11.9986 30.9301C11.1004 31.9739 10.2144 33.0227 9.33852 34.0704M12.8982 25.1368C12.8596 25.1533 12.8197 25.1714 12.7786 25.1911M12.8982 25.1368C12.8218 25.2465 12.7449 25.3561 12.6675 25.4654M12.7786 25.1911C12.7501 25.2684 12.7128 25.3604 12.6675 25.4654M8.00913 30.6083C7.83666 30.9149 7.67576 31.2294 7.54271 31.5381M8.00913 30.6083C7.97064 30.6364 7.93165 30.6647 7.89222 30.6932M7.54271 31.5381C7.44135 31.7734 7.35615 32.0053 7.29432 32.2278M7.54271 31.5381C7.65199 31.2547 7.76927 30.9724 7.89222 30.6932M7.54271 31.5381C7.45425 31.7676 7.37104 31.9978 7.29432 32.2278M7.29432 32.2278C6.98507 33.155 6.78126 34.0786 6.7643 34.9337M6.7643 34.9337C6.75335 35.4864 6.82042 36.0104 6.98749 36.4884M6.7643 34.9337C6.20431 35.7089 4.95443 37.5061 5.34149 37.5103C5.8284 37.5157 6.4383 37.0305 6.98749 36.4884M6.98749 36.4884C6.98921 36.4934 6.99094 36.4983 6.99269 36.5032C7.00468 36.537 7.01743 36.5691 7.03094 36.5994M7.03094 36.5994C8.00855 38.794 12.898 31.9241 13.2068 31.5285C14.7415 29.5622 16.2441 27.5676 17.7018 25.5432M7.03094 36.5994C6.17301 37.5872 5.39581 38.6651 5.50783 39.3133C5.58324 39.7497 8.51399 37.0401 8.6599 36.9007C13.7209 32.0645 18.5733 27.0416 23.9144 22.5015C24.2229 22.2393 24.7824 21.7539 25.2808 21.3581M25.2808 21.3581C25.3316 21.3178 25.3817 21.2784 25.4309 21.2403M25.2808 21.3581C26.4807 20.2378 27.3228 19.5347 27.432 19.6541C27.4539 19.6781 27.372 19.8004 27.2072 20.0005M25.2808 21.3581C25.2025 21.4313 25.1226 21.5062 25.0413 21.5828M25.4309 21.2403C26.0071 20.7935 26.4509 20.5196 26.2317 20.9504C26.1712 21.0693 26.1029 21.1877 26.0279 21.3054M25.4309 21.2403C25.5073 21.1733 25.5838 21.1064 25.6602 21.0397C25.7603 20.9523 26.5011 20.4513 27.2072 20.0005M25.4309 21.2403C25.301 21.3541 25.1711 21.4683 25.0413 21.5828M26.0279 21.3054C25.4233 22.2543 24.3821 23.1601 23.4525 23.9745M26.0279 21.3054C25.3173 22.0606 24.4049 23.0024 23.4525 23.9745M26.0279 21.3054C26.5528 20.7476 26.9676 20.2917 27.2072 20.0005M23.4525 23.9745C23.0766 24.3037 22.719 24.618 22.4158 24.9141C18.997 28.2533 15.0797 31.3864 12.0009 35.0638M23.4525 23.9745C21.0604 26.416 18.4152 29.0489 18.0772 29.3975C16.6416 30.8781 15.2254 32.3836 13.7665 33.8436M12.0009 35.0638C11.9759 35.0936 11.951 35.1234 11.9262 35.1533M12.0009 35.0638C12.5679 34.6156 13.1727 34.205 13.7665 33.8436M12.0009 35.0638C11.9294 35.1203 11.8585 35.1773 11.7883 35.235M11.9262 35.1533C11.8574 35.236 11.7891 35.3189 11.7212 35.4022C10.7924 36.5412 11.9316 35.6292 12.3858 35.1954C12.5765 35.0132 12.7663 34.83 12.9551 34.6457M11.9262 35.1533C12.2626 34.9578 12.6069 34.7867 12.9551 34.6457M11.9262 35.1533C11.8801 35.1801 11.8341 35.2073 11.7883 35.235M12.9551 34.6457C13.2273 34.3802 13.4976 34.1127 13.7665 33.8436M12.9551 34.6457C13.2331 34.5332 13.5135 34.4398 13.7945 34.3684M13.7665 33.8436C14.2308 33.561 14.6883 33.3085 15.1157 33.0917M27.2072 20.0005C27.9075 19.5535 28.5735 19.1557 28.5468 19.2596C28.157 20.7703 25.3297 22.7926 24.3417 23.7971C21.2872 26.9026 18.2424 30.0446 15.1157 33.0917M25.0413 21.5828C21.6312 24.7957 15.7205 30.9399 15.0175 31.688C13.8486 32.9317 12.5117 34.1786 11.3471 35.5186M25.0413 21.5828C20.2083 25.845 15.4376 30.5473 11.2791 35.5653M11.3471 35.5186C11.2117 35.6744 11.0786 35.8315 10.9484 35.9899M11.3471 35.5186C11.4923 35.4197 11.6394 35.325 11.7883 35.235M11.3471 35.5186C11.3244 35.5341 11.3017 35.5496 11.2791 35.5653M10.9484 35.9899C10.5624 36.4596 10.2017 36.9415 9.87999 37.4394C9.21908 38.4623 11.0992 36.8958 11.2069 36.7969C12.0776 35.9975 12.9396 35.1871 13.7945 34.3684M10.9484 35.9899C11.2112 35.7294 11.4936 35.4771 11.7883 35.235M10.9484 35.9899C10.9122 36.0258 10.8763 36.0619 10.8409 36.0981M13.7945 34.3684C14.2367 33.9449 14.677 33.5192 15.1157 33.0917M13.7945 34.3684C14.3399 34.2298 14.8873 34.1741 15.4221 34.2222M15.1157 33.0917C15.632 32.8299 16.1044 32.6201 16.4916 32.4723C16.891 32.3199 17.3049 32.1971 17.7204 32.1096M11.2791 35.5653C11.1323 35.7425 10.9862 35.9201 10.8409 36.0981M11.2791 35.5653C9.66058 36.6873 8.30128 38.3253 7.68628 39.7802C6.61065 42.325 8.9046 43.8085 11.2259 43.3827M10.8409 36.0981C10.4959 36.5207 10.1553 36.9455 9.81955 37.3724M10.8409 36.0981C10.442 36.5055 10.0926 36.9325 9.81955 37.3724M9.81955 37.3724C9.48514 37.7975 9.15546 38.2248 8.83082 38.6541C7.12094 40.9151 7.54316 40.9387 9.21478 39.6394M9.81955 37.3724C9.36664 38.1021 9.12399 38.8677 9.21478 39.6394M9.21478 39.6394C9.59508 39.3438 10.04 38.9797 10.5393 38.5579M9.21478 39.6394C9.22264 39.7061 9.23299 39.7729 9.24591 39.8398C9.32296 40.2382 9.5336 40.5307 9.83464 40.7385M10.5393 38.5579C11.7622 37.5247 13.3109 36.1451 15.0324 34.5776M10.5393 38.5579C11.018 37.706 11.6612 36.9259 12.2111 36.3857C13.0112 35.5997 13.9213 34.764 15.0324 34.5776M10.5393 38.5579C10.1406 39.2674 9.85606 40.0267 9.83464 40.7385M15.0324 34.5776C15.1614 34.4602 15.2913 34.3417 15.4221 34.2222M15.0324 34.5776C15.238 34.5431 15.4505 34.5309 15.6705 34.5453M15.4221 34.2222C16.163 33.5457 16.933 32.8375 17.7204 32.1096M15.4221 34.2222C15.5858 34.237 15.7482 34.2614 15.9091 34.2962M17.7204 32.1096C22.9913 27.237 29.0415 21.4852 32.3718 18.4791C36.5615 14.6972 24.0338 26.0947 20.0519 30.0948C19.4085 30.7413 18.7629 31.3875 18.1192 32.0366M17.7204 32.1096C17.8533 32.0816 17.9864 32.0572 18.1192 32.0366M18.1192 32.0366C17.7336 32.4256 17.3486 32.8155 16.9653 33.2072M18.1192 32.0366C18.1853 32.0263 18.2514 32.017 18.3173 32.0087M16.9653 33.2072C16.8955 33.2785 16.8258 33.3498 16.7562 33.4212M16.9653 33.2072C17.3722 32.8 17.8284 32.3952 18.3173 32.0087M16.9653 33.2072C16.894 33.2785 16.8243 33.3498 16.7562 33.4212M16.7562 33.4212C16.4727 33.7118 16.1902 34.0033 15.9091 34.2962M16.7562 33.4212C16.4696 33.7213 16.2115 34.0211 15.9883 34.3142M15.9091 34.2962C15.8294 34.3791 15.7499 34.4621 15.6705 34.5453M15.9091 34.2962C15.9355 34.3019 15.9619 34.3079 15.9883 34.3142M15.6705 34.5453C14.4637 35.8089 13.2837 37.0972 12.1599 38.4313C11.655 39.0307 9.93244 41.1788 11.8943 39.6512M15.6705 34.5453C15.6989 34.5472 15.7274 34.5495 15.7561 34.5522C15.7741 34.554 15.792 34.5558 15.81 34.5576M11.8943 39.6512C11.8991 39.6475 11.904 39.6437 11.9089 39.6399C12.4125 39.2468 12.91 38.8446 13.4024 38.4346M11.8943 39.6512C12.5664 38.6598 13.4985 37.7111 14.4304 37.0113M11.8943 39.6512C11.5578 40.1476 11.2864 40.6548 11.1129 41.1468M13.4024 38.4346C13.922 38.002 14.4358 37.5608 14.9448 37.1125M13.4024 38.4346C13.6597 38.0079 14.0912 37.4322 14.4304 37.0113M13.4024 38.4346C13.1483 38.856 13.064 39.132 13.4059 38.9699C14.0233 38.6774 14.6073 38.2972 15.1661 37.871M14.9448 37.1125C15.3511 36.7545 15.7544 36.3921 16.155 36.0259M14.9448 37.1125C14.9296 36.9656 14.928 36.8123 14.9413 36.6527M14.9448 37.1125C14.9732 37.3884 15.0497 37.6417 15.1661 37.871M16.155 36.0259C16.5264 35.6866 16.8955 35.344 17.2627 34.999M16.155 36.0259C16.3935 35.9404 16.6179 35.8867 16.822 35.8699C17.0437 35.8516 17.2503 35.8539 17.4421 35.8744M16.155 36.0259C15.7772 36.1615 15.3643 36.377 14.9413 36.6527M17.2627 34.999C17.2675 34.9944 17.2724 34.9898 17.2773 34.9852M17.2627 34.999C17.4464 35.1968 17.5772 35.423 17.6621 35.6684M17.2627 34.999C17.2447 34.9797 17.2263 34.9606 17.2074 34.9419M17.2773 34.9852C18.2899 34.0334 19.2883 33.0622 20.2805 32.085M17.2773 34.9852C17.4974 35.129 17.6712 35.3165 17.777 35.5611M17.2773 34.9852C17.2545 34.9703 17.2312 34.9559 17.2074 34.9419M20.2805 32.085C21.1413 31.2373 21.9975 30.3851 22.8543 29.537M20.2805 32.085C20.5559 32.1518 20.8166 32.2455 21.0573 32.3685M20.2805 32.085C19.9138 31.9961 19.5211 31.955 19.1156 31.9558M22.8543 29.537C24.1573 28.2473 25.4617 26.9672 26.7857 25.7275C29.1161 23.5454 31.4825 21.4 33.7911 19.1947C35.5882 17.478 32.1794 20.2152 32.1368 20.2507C28.2343 23.5088 24.2934 26.9 20.5945 30.4942M22.8543 29.537C23.1856 29.4417 23.5113 29.3703 23.8276 29.3267M22.8543 29.537C22.1142 29.7501 21.3465 30.083 20.5945 30.4942M20.5945 30.4942C20.0969 30.9777 19.6037 31.4648 19.1156 31.9558M20.5945 30.4942C19.801 30.928 19.025 31.4491 18.3173 32.0087M19.1156 31.9558C18.2711 32.8052 17.4418 33.6662 16.6312 34.5394M19.1156 31.9558C18.8537 31.9564 18.5864 31.9745 18.3173 32.0087M16.6312 34.5394C16.59 34.5839 16.5488 34.6283 16.5076 34.6728M16.6312 34.5394C16.8604 34.6515 17.0512 34.7872 17.2074 34.9419M16.6312 34.5394C16.4458 34.4488 16.2354 34.3736 15.998 34.3165C15.9947 34.3157 15.9915 34.3149 15.9883 34.3142M16.5076 34.6728C15.9904 35.2322 15.4808 35.7967 14.9799 36.3665M16.5076 34.6728C16.7654 34.7356 17.0037 34.8221 17.2074 34.9419M16.5076 34.6728C16.2862 34.6189 16.0504 34.5825 15.81 34.5576M14.9799 36.3665C14.8935 36.4648 14.8073 36.5633 14.7214 36.6619C14.64 36.7553 14.54 36.8752 14.4304 37.0113M14.9799 36.3665C15.0802 35.8266 15.343 35.2218 15.81 34.5576M14.9799 36.3665C14.9618 36.464 14.949 36.5594 14.9413 36.6527M14.4304 37.0113C14.6012 36.883 14.772 36.763 14.9413 36.6527M15.1661 37.871C15.9691 37.2587 16.7198 36.5516 17.4421 35.8744M15.1661 37.871C15.2271 37.9914 15.2992 38.1053 15.381 38.2124M17.4421 35.8744C17.5157 35.8054 17.589 35.7367 17.6621 35.6684M17.4421 35.8744C17.5428 35.8852 17.6395 35.901 17.7322 35.9216M17.6621 35.6684C17.7004 35.6325 17.7388 35.5968 17.777 35.5611M17.6621 35.6684C17.6905 35.7507 17.7138 35.8353 17.7322 35.9216M17.777 35.5611C17.8573 35.4864 17.9373 35.4122 18.0169 35.3389C18.8256 34.5945 19.6292 33.8444 20.4287 33.0898M17.777 35.5611C17.8284 35.6799 17.8637 35.8122 17.8805 35.9595M20.4287 33.0898C20.667 32.8649 20.9049 32.6395 21.1425 32.4138M20.4287 33.0898C20.637 32.8484 20.8466 32.608 21.0573 32.3685M20.4287 33.0898C19.6042 34.0448 18.7985 35.0151 18.0173 36.0039M21.1425 32.4138C22.2356 31.3753 23.3214 30.3289 24.4025 29.2773M21.1425 32.4138C22.0643 32.9223 22.6687 33.8836 22.6264 35.4419C22.6159 35.8304 22.5629 36.1885 22.474 36.5172M21.1425 32.4138C21.1144 32.3983 21.086 32.3832 21.0573 32.3685M24.4025 29.2773C27.6384 26.1298 30.8316 22.9364 34.0482 19.7739C34.3533 19.4739 35.3151 18.5397 35.7078 18.1067C36.3627 17.3846 35.5182 17.9933 35.3599 18.1159C32.8123 20.0874 30.528 22.4592 28.269 24.7417C26.7759 26.2504 25.2861 27.7733 23.8276 29.3267M24.4025 29.2773C28.5247 29.1271 25.2354 33.6368 23.9632 35.1229C23.8802 35.22 23.7478 35.371 23.5745 35.5642M24.4025 29.2773C24.332 29.2799 24.2594 29.2838 24.1845 29.2891C24.067 29.2975 23.948 29.3101 23.8276 29.3267M23.8276 29.3267C22.8887 30.3266 21.9628 31.3391 21.0573 32.3685M18.0173 36.0039C17.9754 36.057 17.9335 36.1101 17.8917 36.1633M18.0173 36.0039C18.2215 36.0776 18.4024 36.1773 18.5607 36.2982M18.0173 36.0039C17.9728 35.9879 17.9272 35.973 17.8805 35.9595M17.8917 36.1633C17.855 36.21 17.8183 36.2569 17.7817 36.3037M17.8917 36.1633C17.8917 36.2378 17.8875 36.3157 17.8788 36.3971C17.8738 36.4446 17.8681 36.492 17.8618 36.5394M17.8917 36.1633C17.8917 36.0923 17.8879 36.0244 17.8805 35.9595M17.7817 36.3037C17.6633 36.455 17.5455 36.6068 17.4284 36.7591M17.7817 36.3037C17.7864 36.3935 17.7867 36.4845 17.7828 36.5765M17.7817 36.3037C17.7748 36.1733 17.7585 36.0455 17.7322 35.9216M17.4284 36.7591C17.2327 37.0133 17.0387 37.2688 16.8465 37.5257M17.4284 36.7591C17.5463 36.694 17.6645 36.633 17.7828 36.5765M17.4284 36.7591C16.8596 37.0731 16.2983 37.4839 15.775 37.9626M16.8465 37.5257C16.7973 37.5914 16.7482 37.6573 16.6992 37.7232C16.6259 37.8219 16.3057 38.2129 15.917 38.7288M16.8465 37.5257C17.1085 37.4592 17.3755 37.4202 17.644 37.4128M16.8465 37.5257C16.4758 37.6198 16.1152 37.7692 15.775 37.9626M15.917 38.7288C15.4871 39.2991 14.9733 40.0222 14.6162 40.6718M15.917 38.7288C15.7366 38.5982 15.5757 38.45 15.4387 38.2848M15.917 38.7288C16.1653 38.9085 16.4502 39.0549 16.7594 39.1662M14.6162 40.6718C14.3179 41.2147 14.1289 41.7063 14.1899 42.0147M14.6162 40.6718C14.2927 40.7775 13.9236 40.8779 13.5337 40.9607M14.6162 40.6718C15.0166 40.541 15.3471 40.4019 15.5608 40.2777C15.9871 40.0298 16.404 39.6365 16.7594 39.1662M14.1899 42.0147C14.2049 42.0903 14.2349 42.1549 14.2819 42.2066C15.0619 43.0624 17.0303 41.8017 18.9986 40.1075M14.1899 42.0147C13.96 42.1778 13.725 42.33 13.4866 42.4703M14.1899 42.0147C15.2436 41.2675 16.1905 40.2933 16.8651 39.2025M18.9986 40.1075C19.1669 39.9626 19.3351 39.8146 19.5026 39.6645M18.9986 40.1075C18.9368 40.2319 18.8687 40.3535 18.7942 40.4712M18.9986 40.1075C19.1229 39.8572 19.2212 39.5953 19.2924 39.3295M19.5026 39.6645C19.5758 39.599 19.6488 39.533 19.7216 39.4667M19.5026 39.6645C19.5996 39.5533 19.7022 39.4362 19.8098 39.3144M19.5026 39.6645C19.4495 39.7256 19.398 39.7848 19.3484 39.842C19.1749 40.0425 18.9886 40.2525 18.7942 40.4712M19.7216 39.4667C19.8624 39.3386 20.0024 39.2092 20.1413 39.0794M19.7216 39.4667C19.3102 40.1564 18.7696 40.7856 18.329 41.2589C18.0636 41.5441 17.6816 41.9102 17.227 42.2899M19.7216 39.4667C19.7517 39.4163 19.7812 39.3655 19.8098 39.3144M20.1413 39.0794C20.2044 39.0203 20.2673 38.9611 20.3299 38.9018M20.1413 39.0794C20.0802 39.1038 20.0186 39.1269 19.9566 39.1487M20.1413 39.0794C20.2161 39.0494 20.2901 39.0175 20.3632 38.9836M20.3299 38.9018C21.0702 38.2012 21.7696 37.493 22.3586 36.8758M20.3299 38.9018C20.3416 38.9288 20.3526 38.9561 20.3632 38.9836M20.3299 38.9018C20.3137 38.8641 20.2964 38.8267 20.278 38.7899M22.3586 36.8758C22.857 36.3536 23.2764 35.8964 23.5745 35.5642M22.3586 36.8758C21.9797 37.8852 21.2374 38.5778 20.3632 38.9836M22.3586 36.8758C22.4019 36.7604 22.4405 36.6409 22.474 36.5172M23.5745 35.5642C24.4418 34.9199 24.6098 35.9302 24.5871 36.9915M23.5745 35.5642C23.562 35.5734 23.5494 35.583 23.5367 35.5929C23.202 35.854 22.8419 36.1706 22.474 36.5172M15.9883 34.3142C15.9436 34.3729 15.9002 34.4315 15.8583 34.4897C15.842 34.5124 15.8259 34.535 15.81 34.5576M15.381 38.2124C15.3997 38.2369 15.419 38.2611 15.4387 38.2848M15.381 38.2124C15.5087 38.1227 15.6403 38.0392 15.775 37.9626M15.381 38.2124C14.4245 38.8845 13.6832 39.9053 13.4247 40.9833M15.4387 38.2848C15.5488 38.1744 15.661 38.0669 15.775 37.9626M15.4387 38.2848C14.6605 39.0656 13.9882 39.9926 13.5337 40.9607M16.7594 39.1662C16.7943 39.1788 16.8295 39.1909 16.8651 39.2025M16.7594 39.1662C17.153 38.6454 17.4713 38.03 17.644 37.4128M16.8651 39.2025C17.6013 39.4445 18.463 39.4936 19.2924 39.3295M16.8651 39.2025C17.2177 38.6323 17.496 38.0302 17.6762 37.412M19.2924 39.3295C19.4932 39.2898 19.6921 39.2376 19.8869 39.1726M19.2924 39.3295C19.4243 38.8375 19.463 38.3326 19.4002 37.8656M19.8869 39.1726C19.9102 39.1648 19.9334 39.1568 19.9566 39.1487M19.8869 39.1726C19.8619 39.2201 19.8362 39.2673 19.8098 39.3144M19.8869 39.1726C19.9901 38.9762 20.0809 38.7763 20.1541 38.5747M19.9566 39.1487C20.0601 39.0323 20.1674 38.9124 20.278 38.7899M19.9566 39.1487C19.9067 39.2048 19.8578 39.26 19.8098 39.3144M20.3632 38.9836C21.0349 40.7366 19.4793 43.3421 18.0307 44.2415C17.628 44.4915 17.0156 44.7356 16.353 44.8913M22.474 36.5172C21.725 37.2227 20.9436 38.0524 20.278 38.7899M9.83464 40.7385C10.169 40.9694 10.6148 41.0958 11.1129 41.1468M9.83464 40.7385C9.81059 41.5384 10.1188 42.2783 10.9705 42.8202M11.1129 41.1468C11.8336 41.2207 12.6638 41.1368 13.4247 40.9833M11.1129 41.1468C10.9031 41.742 10.8363 42.3151 10.9705 42.8202M13.4247 40.9833C13.4612 40.9759 13.4975 40.9684 13.5337 40.9607M13.4247 40.9833C13.4156 41.0214 13.407 41.0596 13.3991 41.0979C13.3802 41.1891 13.3662 41.2788 13.3567 41.3672M13.5337 40.9607C13.4704 41.0955 13.4113 41.2311 13.3567 41.3672M17.644 37.4128C17.7228 37.1315 17.7712 36.8498 17.7828 36.5765M17.644 37.4128C17.6548 37.4125 17.6655 37.4122 17.6762 37.412M17.7828 36.5765C17.8091 36.5639 17.8355 36.5515 17.8618 36.5394M17.7322 35.9216C17.7828 35.9328 17.8323 35.9454 17.8805 35.9595M11.2259 43.3827C11.41 43.3489 11.5942 43.3032 11.7769 43.245C11.795 43.2392 11.813 43.2334 11.8311 43.2275M11.2259 43.3827C11.2188 43.372 11.2117 43.3612 11.2046 43.3503C11.0972 43.1844 11.0201 43.007 10.9705 42.8202M11.2259 43.3827C11.7236 44.1283 12.4153 44.3845 13.1792 44.3381M11.8311 43.2275C12.2117 43.103 12.5937 42.9433 12.9704 42.7527M11.8311 43.2275C11.616 43.1549 11.4051 43.0643 11.2 42.9543C11.1195 42.9111 11.043 42.8664 10.9705 42.8202M11.8311 43.2275C12.1838 43.3464 12.548 43.4169 12.9174 43.4445M12.9704 42.7527C13.1438 42.6649 13.3161 42.5707 13.4866 42.4703M12.9704 42.7527C13.0399 42.2923 13.1725 41.8268 13.3567 41.3672M12.9704 42.7527C12.9439 42.9281 12.9266 43.1029 12.9191 43.2763C12.9167 43.334 12.9161 43.39 12.9174 43.4445M13.4866 42.4703C13.3647 42.1312 13.3144 41.7633 13.3567 41.3672M13.4866 42.4703C13.6088 42.8102 13.8031 43.1212 14.0484 43.4026M17.6762 37.412C17.7601 37.1241 17.8228 36.8327 17.8618 36.5394M17.6762 37.412C18.1653 37.4031 18.6588 37.4991 19.1348 37.724C19.2286 37.7683 19.317 37.8156 19.4002 37.8656M17.8618 36.5394C17.9566 36.4957 18.0513 36.4548 18.1459 36.417C18.273 36.3661 18.4138 36.3256 18.5607 36.2982M12.9174 43.4445C13.2913 43.4724 13.6705 43.4565 14.0484 43.4026M12.9174 43.4445C12.9263 43.8132 13.0207 44.1073 13.1792 44.3381M14.0484 43.4026C15.4296 43.2059 16.7935 42.5025 17.8172 41.5826M14.0484 43.4026C14.2216 43.6014 14.4203 43.7854 14.637 43.9545M17.8172 41.5826C18.0684 41.3568 18.2991 41.1181 18.5045 40.8706C18.6096 40.7439 18.7063 40.6103 18.7942 40.4712M17.8172 41.5826C18.1514 41.1929 18.4832 40.821 18.7942 40.4712M17.8172 41.5826C17.62 41.8124 17.422 42.0485 17.227 42.2899M19.4002 37.8656C19.3148 37.2308 19.042 36.6659 18.5607 36.2982M19.4002 37.8656C19.7287 38.0631 19.9762 38.3036 20.1541 38.5747M18.5607 36.2982C19.2983 36.1606 20.1939 36.3521 20.3266 37.212C20.3956 37.6585 20.3192 38.1206 20.1541 38.5747M13.1792 44.3381C13.6474 44.3096 14.1427 44.1674 14.637 43.9545M13.1792 44.3381C13.605 44.9582 14.493 45.1203 15.4246 45.0416M14.637 43.9545C15.566 43.5543 16.4915 42.9043 17.227 42.2899M14.637 43.9545C14.9462 44.1958 15.2921 44.4067 15.6533 44.5866M17.227 42.2899C16.6411 43.0152 16.0822 43.7886 15.6533 44.5866M20.1541 38.5747C20.2 38.6445 20.2412 38.7163 20.278 38.7899M15.4246 45.0416C15.7344 45.0155 16.049 44.9627 16.353 44.8913M15.4246 45.0416C15.4957 44.8892 15.5722 44.7374 15.6533 44.5866M15.4246 45.0416C15.1311 45.671 14.9287 46.3127 14.8664 46.9554C14.5393 50.3298 17.2833 49.545 19.8444 48.1074M16.353 44.8913C16.1173 44.8023 15.8822 44.7007 15.6533 44.5866M16.353 44.8913C16.9114 45.1021 17.4733 45.2422 17.9658 45.3096C18.2028 45.3421 18.4331 45.3597 18.6568 45.3633M18.6568 45.3633C20.1299 45.3875 21.3166 44.8076 22.2268 43.8769M18.6568 45.3633C19.1196 43.1396 21.0684 41.1484 22.4387 39.501C23.1338 38.6653 23.8483 37.8219 24.5871 36.9915M18.6568 45.3633C18.6282 45.501 18.6052 45.6395 18.5885 45.7789C18.42 47.179 19.5757 46.7282 20.7216 45.9866M22.2268 43.8769C22.4631 43.6352 22.6808 43.3698 22.88 43.0852M22.2268 43.8769C22.4422 43.6089 22.6613 43.3449 22.88 43.0852M22.2268 43.8769C21.6801 44.5568 21.1567 45.2623 20.7216 45.9866M22.88 43.0852C23.7327 41.8673 24.2469 40.2973 24.4363 38.7227C24.4682 38.4579 24.5717 37.7129 24.5871 36.9915M22.88 43.0852C23.3956 42.4732 23.9091 41.8856 24.3684 41.3276C27.3648 37.6875 30.4708 34.1226 33.8303 30.8113M24.5871 36.9915C26.5276 34.8103 28.6363 32.7182 31.0037 31.089C31.4298 30.7958 33.9694 29.1957 33.8303 30.8113M19.8444 48.1074C21.6623 47.087 23.3881 45.7377 23.8579 45.3135C26.0141 43.3668 27.9128 41.1084 29.6212 38.7535M19.8444 48.1074C19.8937 47.7546 20.0069 47.4091 20.0504 47.3033C20.2334 46.8587 20.4617 46.4193 20.7216 45.9866M19.8444 48.1074C19.7801 48.5677 19.8244 49.0404 20.274 49.0094C20.8287 48.9711 21.9581 48.1485 22.2266 47.9671C24.5277 46.4126 26.6815 44.6407 28.8405 42.8993C34.6009 38.2533 40.3031 33.5313 46.1743 29.0244C48.2372 27.4408 50.5175 25.3707 52.9553 24.3678C54.7044 23.6483 50.3173 27.083 48.9082 28.3445C44.5136 32.279 40.0828 36.1885 35.9901 40.4425C35.3657 41.0916 34.7535 41.753 34.1657 42.4355C33.9097 42.7327 33.1571 43.1309 33.4614 43.3785C33.7752 43.6338 34.1286 42.9183 34.4358 42.6552C35.7744 41.5089 39.6801 37.8571 40.5912 37.0159C41.0384 36.6031 41.4856 36.1899 41.9329 35.777M29.6212 38.7535C29.8522 38.4351 30.0798 38.1149 30.304 37.7934C31.6772 35.8248 33.4403 33.386 33.8155 30.9341C33.822 30.8913 33.827 30.8503 33.8303 30.8113M29.6212 38.7535C27.405 40.7731 25.119 42.6883 22.7729 44.4452C22.5579 44.6062 21.6429 45.3904 20.7216 45.9866M29.6212 38.7535C34.0894 34.6819 38.2741 30.1862 42.0974 25.7092C42.5584 25.1693 43.6301 23.8904 44.0401 23.1318C44.3521 22.5545 44.1372 22.2825 43.5586 22.5748C40.6567 24.041 38.0688 26.8209 35.7185 29.0038C35.0798 29.5969 34.4508 30.1998 33.8303 30.8113M41.9329 35.777C45.1964 32.7638 48.4694 29.7567 51.8627 26.8903C52.5956 26.2711 53.1907 25.6314 51.9107 26.6019C49.4832 28.4425 45.4198 32.2741 41.9329 35.777ZM41.9329 35.777C37.0867 40.6453 33.3538 44.8787 36.673 42.25C41.6515 38.3072 46.0482 33.6545 50.9547 29.6187C53.0175 27.9219 50.7201 30.2042 50.2611 30.6572C44.5935 36.249 38.7129 41.8443 33.7354 48.0755C30.2263 52.4682 42.1283 40.5732 46.6145 37.1846C49.9267 34.6828 50.3823 35.3447 49.0669 38.5381C48.3169 40.3589 47.4285 42.1322 46.5779 43.908M44.7512 27.9081C43.6122 28.5712 42.5165 29.2301 41.461 29.9193M41.461 29.9193C41.1609 30.1152 40.8642 30.3135 40.5706 30.5151M41.461 29.9193C41.1175 30.2747 40.7741 30.6302 40.431 30.986C39.5589 31.8901 38.4977 33.2697 37.3437 34.5361M41.461 29.9193C42.5011 28.8431 43.5426 27.7681 44.5831 26.6921M40.5706 30.5151C40.4073 30.6273 40.245 30.7404 40.0836 30.8547M40.5706 30.5151C40.9624 30.1029 41.3578 29.6971 41.7479 29.2947M40.5706 30.5151C39.3805 31.7672 38.2228 33.0791 37.3437 34.5361M40.0836 30.8547C38.3166 32.1062 36.6664 33.4943 35.118 35.1977C34.6641 35.697 32.1041 38.3737 32.12 39.588C32.128 40.1995 36.6744 36.7901 37.6555 36.0151M40.0836 30.8547C40.6352 30.3313 41.1904 29.8117 41.7479 29.2947M40.0836 30.8547C38.6654 32.2005 37.2714 33.5713 35.926 34.9886C35.2473 35.7037 33.1449 37.6806 34.0398 37.2669C35.1693 36.7449 36.2948 35.6872 37.3437 34.5361M37.6555 36.0151C37.7462 35.9434 37.8065 35.8943 37.8298 35.873C42.9703 31.1703 47.9359 26.0354 52.6478 20.9008C53.2612 20.2324 54.0688 19.0085 52.5692 19.9776C49.7785 21.7809 47.3062 24.2064 44.8642 26.4355L44.7515 26.5383C44.6954 26.5896 44.6392 26.6408 44.5831 26.6921M37.6555 36.0151C36.8768 36.3716 36.3709 36.3673 36.9042 35.3244C37.0411 35.0567 37.188 34.7941 37.3437 34.5361M37.6555 36.0151C38.6584 35.556 40.114 34.4985 40.3852 34.2913C45.88 30.0913 50.9016 25.227 56.698 21.4257C57.1916 21.102 59.5662 19.4249 58.411 21.2029C56.4412 24.2348 53.7417 26.8997 51.382 29.6279C48.5668 32.8826 45.7536 36.1666 43.1245 39.5742C42.9355 39.8192 39.8595 44.2509 41.3161 43.3617C44.0109 41.7166 46.1947 38.7513 48.3405 36.5123C51.7232 32.9827 55.1359 29.4591 58.701 26.112C59.4347 25.4231 60.1915 24.7593 60.9687 24.1198C61.2898 23.8556 62.0371 22.9959 61.9942 23.4095C61.9603 23.7365 61.3874 24.3065 61.2182 24.5143C59.9665 26.0519 58.6518 27.5409 57.3748 29.0571C53.9669 33.1036 50.3894 37.1167 47.4829 41.5519C46.8037 42.5883 45.992 44.8077 48.0315 43.3243C54.1791 38.853 58.7223 32.4021 64.9853 28.0271C66.6006 26.8987 64.9598 29.6566 64.7068 30.0704C63.042 32.7925 61.1269 35.3695 59.6318 38.1947C59.0502 39.2939 57.8428 41.4002 58.3667 42.7071C58.9191 44.0848 61.8207 41.6928 62.22 41.3749C65.0155 39.1492 67.8275 36.2445 70.1681 33.0823M44.5831 26.6921C43.6362 27.5565 42.6888 28.422 41.7479 29.2947M44.5831 26.6921C45.3349 25.9146 46.0861 25.1365 46.8359 24.3571M41.7479 29.2947C41.9934 29.0414 42.2368 28.7896 42.4759 28.5383C43.4515 27.5131 45.1091 25.951 46.8359 24.3571M46.8359 24.3571C48.0764 23.0675 49.3129 21.7741 50.5412 20.4732M46.8359 24.3571C50.7561 20.7385 55.0325 16.9561 52.4914 18.9223C51.8341 19.431 51.1844 19.9483 50.5412 20.4732M50.5412 20.4732C50.6659 20.3411 50.7905 20.209 50.915 20.0767C51.968 18.9585 53.6304 17.2207 54.6111 15.8925C54.8718 15.5395 55.398 14.5729 54.9621 14.6236C53.8421 14.754 52.3985 16.2204 51.6261 16.8523C51.09 17.2911 50.557 17.734 50.027 18.1806M50.5412 20.4732C47.2392 23.1676 44.1084 26.0592 40.9964 28.9763C38.9872 30.8596 37.0536 33.1747 34.7113 34.6621C33.8492 35.2095 35.1404 33.5823 35.2439 33.4566C36.4049 32.0446 37.6215 30.6712 38.8762 29.3288M50.027 18.1806C47.7252 20.1201 45.4778 22.1282 43.2557 24.1557C41.1312 26.0942 39.0522 28.0818 37.0132 30.1097M50.027 18.1806C49.7667 18.4345 49.508 18.6882 49.2531 18.9429C48.2306 19.965 47.2088 20.988 46.1871 22.0113M50.027 18.1806C51.4304 16.8121 52.8809 15.4391 54.0358 13.866C54.7192 12.9351 51.3581 15.2101 51.1363 15.379C47.566 18.0973 44.0989 20.9933 40.7129 23.988M37.0132 30.1097C35.7627 31.3535 34.5273 32.6124 33.3058 33.8846C31.9285 35.3189 30.4333 36.7452 29.2243 38.3306C28.4996 39.2809 31.4091 36.7339 31.6103 36.536C34.0418 34.144 36.4616 31.7392 38.8762 29.3288M37.0132 30.1097C39.0415 27.5978 41.4095 25.3441 43.596 22.9776C44.1935 22.331 46.0618 20.7583 45.1885 20.8703C44.1516 21.0032 42.5879 22.5294 41.8151 23.1226C41.4445 23.4071 41.0773 23.6958 40.7129 23.988M37.0132 30.1097C36.8502 30.3116 36.6894 30.5151 36.5311 30.7205C36.3629 30.9387 35.5064 32.0215 36.3579 31.2942C38.1685 29.7478 39.7975 27.9832 41.5137 26.3348C42.5347 25.3541 44.5746 23.4797 46.1871 22.0113M38.8762 29.3288C40.8799 27.3286 42.8799 25.3246 44.8799 23.3209M38.8762 29.3288C40.8078 27.2623 42.83 25.2691 44.8799 23.3209M44.8799 23.3209C45.3156 22.8843 45.7514 22.4478 46.1871 22.0113M44.8799 23.3209C45.9364 22.3168 47.0002 21.3247 48.0628 20.3407C49.1954 19.2919 47.9453 20.4103 46.1871 22.0113M40.7129 23.988C38.3297 26.0958 35.9867 28.2525 33.6762 30.4305M40.7129 23.988C39.0048 25.3577 37.3581 26.8049 35.7148 28.2552M33.6762 30.4305C32.1511 31.8682 30.6401 33.3152 29.1412 34.7636C27.9183 35.9452 26.2436 37.218 25.326 38.6701C24.1341 40.5564 28.666 35.7028 30.2079 34.0898C31.3692 32.8751 32.5248 31.6547 33.6762 30.4305ZM33.6762 30.4305C34.3571 29.7066 35.0365 28.9814 35.7148 28.2552M35.7148 28.2552C37.0028 26.8763 38.2869 25.4937 39.5695 24.1099C41.0214 22.5434 44.16 20.1896 44.8443 17.9999C45.1244 17.1038 42.3837 19.1974 42.3126 19.2558C39.5084 21.5593 36.8354 24.019 34.1789 26.4905M35.7148 28.2552C33.3713 30.3234 31.0346 32.3979 28.5361 34.263C27.8552 34.7714 26.5535 35.5098 27.464 34.1356C28.6804 32.2998 30.2692 30.6663 31.7385 29.0404C32.3181 28.399 33.203 27.4829 34.1789 26.4905M34.1789 26.4905C33.8905 26.7588 33.6024 27.0272 33.3142 27.2956L33.2325 27.3717C29.8624 30.511 19.9715 40.1495 23.1247 36.7924C24.7893 35.0201 26.4025 33.1948 28.0065 31.3606M34.1789 26.4905C37.3144 23.302 41.3892 19.3266 39.294 21.1495C37.8343 22.4196 31.0157 29.0537 28.0065 31.3606M28.0065 31.3606C29.6667 29.462 31.3168 27.5538 33.0036 25.6847C33.7481 24.8598 36.1402 22.7068 35.0974 23.0906C34.3964 23.3485 33.7212 23.7946 33.077 24.3096M28.0065 31.3606C27.2499 31.9405 26.7341 32.247 26.6049 32.1259C26.1231 31.6747 30.1517 27.343 33.077 24.3096M33.077 24.3096C32.195 25.0149 31.3713 25.8494 30.6199 26.5072C27.4022 29.3242 23.9716 32.0292 20.8393 34.9772M33.077 24.3096C34.3896 22.9485 35.4801 21.8488 35.8413 21.4784C38.3832 18.8715 30.2719 26.1701 27.5228 28.5574C26.5677 29.3868 25.6262 30.2475 24.6767 31.1013M20.8393 34.9772C20.2027 35.5763 19.5784 36.1855 18.9707 36.8076C17.4471 38.3676 18.7007 37.1271 20.8393 34.9772ZM20.8393 34.9772C21.9652 33.8453 23.3364 32.4613 24.6767 31.1013M24.6767 31.1013C26.421 29.3314 28.113 27.6019 29.1442 26.521C30.4598 25.1421 32.0543 23.7578 33.0616 22.1139C33.8429 20.8388 31.8217 22.2099 31.5478 22.41C28.6308 24.5404 25.9967 27.1526 23.4284 29.6782C21.9663 31.1159 19.5762 32.9493 18.8448 34.9627C18.5325 35.8225 20.2161 34.8129 20.3465 34.717C21.8534 33.6093 23.2737 32.3629 24.6767 31.1013ZM70.1681 33.0823C70.6407 32.4437 71.0942 31.7946 71.5243 31.1385M70.1681 33.0823C69.8873 34.2818 69.5814 35.637 69.3841 36.7374C69.317 37.1116 69.1595 37.9196 69.4658 37.1731C69.977 35.927 70.3533 34.6134 70.7904 33.3406C71.0369 32.6227 71.2746 31.8818 71.5243 31.1385M70.1681 33.0823C70.2583 32.6968 70.3459 32.3274 70.4265 31.9877L70.4585 31.8528C70.8882 30.0402 71.3578 28.2362 71.8109 26.4284M71.5243 31.1385C72.6433 29.4319 73.6049 27.6778 74.3385 25.9373C74.7997 24.8429 74.1035 25.5976 73.7769 26.0906C72.7746 27.6035 72.1158 29.3777 71.5243 31.1385ZM71.8109 26.4284C72.1151 25.2149 72.4118 23.9998 72.6842 22.7793C72.8499 22.0368 72.4883 23.1093 72.437 23.2554C72.1054 24.199 71.8587 25.1943 71.7312 26.1868C71.6704 26.6604 71.709 26.6872 71.8109 26.4284ZM71.8109 26.4284C72.1326 25.612 73.0854 21.9521 73.5373 20.5147C74.1243 18.6477 74.9956 16.4416 74.3232 14.481C73.7877 12.9194 73.3938 11.2832 72.785 9.75042C71.8142 7.30672 69.7629 6.24221 67.2477 5.9782C65.4701 5.79161 63.6725 5.18979 61.8858 5.30066C58.9379 5.48361 55.5422 7.49791 53.1476 9.0912C49.4419 11.5569 46.0864 14.4321 42.305 16.8264C41.0218 17.6388 39.6189 18.3791 38.4837 19.4015C38.4566 19.4259 38.4313 19.4612 38.407 19.5015M38.407 19.5015C38.3015 19.677 38.2171 19.9489 38.0984 19.8433C37.9266 19.6905 38.1092 19.5739 38.407 19.5015ZM38.407 19.5015C38.7686 19.4136 39.3001 19.3909 39.5733 19.448M45.6165 15.7536C43.3172 16.2319 41.4997 16.9462 39.5077 18.1403C39.2614 18.2879 37.585 19.324 38.0625 18.8392C40.4184 16.4475 48.6332 10.6464 45.6913 12.2637C41.1389 14.7664 36.4952 20.4482 30.6947 18.0976C29.1735 17.4811 26.9493 18.6939 25.0957 19.8699M25.0957 19.8699C24.2676 20.3953 23.5134 20.9133 22.929 21.2576M25.0957 19.8699C24.5959 20.4809 23.9747 21.1125 23.3611 21.6616M25.0957 19.8699C25.6618 19.1778 26.0722 18.5121 26.1394 18.0228C26.2648 17.1097 24.0641 18.229 23.906 18.3234C23.1177 18.7942 22.3506 19.3153 21.6049 19.8679M22.929 21.2576C22.9004 21.2744 22.8723 21.2907 22.8446 21.3067C22.4743 21.52 20.4324 23.5201 21.2835 23.1608C21.7719 22.9546 22.5601 22.3784 23.3611 21.6616M22.929 21.2576C22.4717 20.8176 22.0314 20.3538 21.6049 19.8679M22.929 21.2576C23.0713 21.3946 23.2154 21.5293 23.3611 21.6616M23.3611 21.6616C23.7544 22.0186 24.1602 22.3583 24.5803 22.6796M21.6049 19.8679C21.5434 19.9135 21.482 19.9593 21.4208 20.0053M21.6049 19.8679C21.5556 19.8116 21.5064 19.7551 21.4574 19.6983M21.4208 20.0053C20.5291 20.6753 19.6684 21.3885 18.8387 22.1124C17.9719 22.8687 15.0331 26.5068 15.0297 23.9421C15.0273 22.1143 14.1973 22.1823 13.3113 23.7345C12.1742 25.7268 11.0614 27.7052 9.78996 29.6248C9.36743 30.2628 9.0259 30.9823 8.72244 31.7298M21.4208 20.0053C21.2827 20.5599 20.7835 21.0453 20.4075 21.4517C19.4812 22.4528 18.9811 23.8865 18.3885 25.0896C18.3027 25.2639 17.3515 26.8966 17.8201 26.4363C19.727 24.5629 22.2024 23.7237 24.5803 22.6796M21.4208 20.0053C21.4455 19.9062 21.4586 19.8048 21.4575 19.7014L21.4574 19.6983M8.72244 31.7298C8.24336 32.91 7.85917 34.1602 7.40091 35.2702C7.32991 35.4422 6.09568 38.5934 5.68638 37.6973C4.59522 35.3081 6.79385 30.7293 7.77937 28.6001C9.01073 25.9399 11.0623 22.9207 13.4533 21.1884C13.9098 20.8577 14.4331 20.6882 14.9821 20.5962M8.72244 31.7298C8.75487 31.5703 8.77987 31.409 8.79573 31.2454C8.98682 29.2744 9.41163 27.624 10.6331 25.9915C11.8652 24.3447 13.3265 22.1339 14.9821 20.5962M8.72244 31.7298C8.46642 32.9891 7.74757 34.1343 7.4116 35.3793C7.08002 36.608 7.62974 38.9675 8.53783 39.8962C8.63841 39.9991 9.59891 41.0797 9.52977 41.1796C9.45825 41.2829 8.87749 40.5495 8.85449 40.5219C8.55179 40.1587 8.00376 39.6008 7.52147 39.4705C6.65613 39.2366 5.9693 40.2935 6.63483 40.9385C7.23107 41.5162 7.64998 42.0549 8.43863 42.363C10.0792 43.0038 11.8478 43.4302 13.4063 44.2555M14.9821 20.5962C15.8138 20.4568 16.7045 20.4953 17.5118 20.4201C17.8583 20.3878 19.6539 20.5207 19.0615 19.8524C18.2578 18.9457 17.1525 19.0028 16.2032 19.6251C15.7854 19.899 15.3782 20.2283 14.9821 20.5962ZM13.4063 44.2555C13.8845 44.5087 14.3429 44.7995 14.7718 45.1456C14.9746 45.3092 15.1779 45.4534 15.3814 45.5789M13.4063 44.2555C13.4493 44.2519 13.4935 44.2466 13.5387 44.2392C15.0023 43.9973 16.3343 44.8892 17.7242 44.2994M13.4063 44.2555C12.8148 44.305 12.4469 44.0349 12.7665 44.7107C13.38 46.0077 14.336 46.0058 15.3814 45.5789M15.3814 45.5789C17.6442 46.9742 19.929 46.0605 21.6864 43.8752C21.8711 43.6455 23.3912 41.5552 23.9175 40.2803M15.3814 45.5789C16.1475 45.266 16.9617 44.7248 17.7242 44.2994M23.9175 40.2803C24.1756 39.6551 24.1947 39.226 23.7 39.3087C21.6418 39.653 19.9394 42.8657 18.1967 44.0399M23.9175 40.2803C22.0767 41.6309 20.201 42.9264 18.1967 44.0399M23.9175 40.2803C25.02 39.4714 26.11 38.6428 27.2076 37.8216C27.7552 37.4121 28.6814 36.7593 29.6109 36.1038M18.1967 44.0399C18.1762 44.0537 18.1557 44.0672 18.1352 44.0805C17.9975 44.1693 17.8606 44.2415 17.7242 44.2994M18.1967 44.0399C18.0881 44.1003 17.9791 44.1601 17.8697 44.2193C17.8214 44.2455 17.7729 44.2722 17.7242 44.2994M29.6109 36.1038C31.497 34.7736 33.3966 33.4319 32.1734 34.0868C31.2574 34.5773 30.4062 35.2923 29.6109 36.1038ZM29.6109 36.1038C28.3132 37.4278 27.1644 39.0084 26.1257 40.2884C25.958 40.4951 23.4858 44.0266 24.534 43.8744C26.8704 43.5353 29.3706 40.3379 31.0564 38.9272C32.3038 37.8834 36.0018 34.7219 34.8929 35.9119C32.9171 38.0321 30.8015 40.1793 29.148 42.5659C27.641 44.7412 30.5073 42.5611 31.1525 42.0616C32.612 40.9317 34.1496 39.9453 35.6727 38.9104C37.2467 37.841 32.8536 41.4741 31.5607 42.8703C31.4193 43.0231 30.4301 44.1214 29.6024 45.2598M29.6024 45.2598C29.451 45.468 29.3051 45.6776 29.1707 45.883M29.6024 45.2598C29.4098 45.9894 29.0396 46.8197 29.0053 46.9737C28.7799 47.9884 30.402 45.3496 31.3448 44.9121C31.8377 44.6834 32.3196 44.5906 32.796 44.5766M29.6024 45.2598C29.8098 44.4745 29.8115 43.8059 28.9672 44.2231C27.2473 45.073 26.4378 47.1148 25.0834 48.3593C24.9778 48.4563 25.0363 47.2544 24.8484 47.1111C24.187 46.6066 23.575 48.8378 23.5337 49.1009C23.0539 52.153 25.096 50.3128 26.3286 48.9041C27.2496 47.8516 28.0755 46.6268 29.1335 45.701C29.2287 45.6178 29.2283 45.7023 29.1707 45.883M29.1707 45.883C28.7347 46.5491 28.4207 47.1711 28.4395 47.5595M29.1707 45.883C29.0546 46.2469 28.7063 47.001 28.4395 47.5595M28.4395 47.5595C28.4485 47.746 28.5342 47.8787 28.72 47.9366C29.4464 48.1632 30.9147 46.4322 31.2258 46.1329C31.7565 45.6223 32.2807 45.1039 32.796 44.5766M28.4395 47.5595C28.2639 47.9271 28.1236 48.2099 28.108 48.2411C27.6005 49.2561 26.8395 50.4639 26.5331 51.652M32.796 44.5766C34.331 43.0059 35.7875 41.3563 37.1034 39.5994C39.4975 36.4031 42.3367 32.7825 41.6533 28.5322C41.2308 25.9044 36.4842 26.7468 34.5778 26.8887C33.6717 26.9562 27.3352 27.7963 28.0271 25.6145C28.107 25.3626 28.1974 25.1047 28.2961 24.8446M32.796 44.5766C33.4422 44.5576 34.0782 44.6835 34.7171 44.8118M28.2961 24.8446C28.6318 23.9597 29.0643 23.0492 29.5112 22.262C29.8458 21.6726 31.5204 20.2289 31.4821 19.5396C31.4582 19.1086 26.8445 21.5595 26.524 21.7363C25.8931 22.0842 25.2405 22.3898 24.5803 22.6796M28.2961 24.8446C26.9322 24.2683 25.7049 23.5398 24.5803 22.6796M28.2961 24.8446C28.4037 24.8901 28.5122 24.9346 28.6215 24.9782C33.1224 26.7716 37.5367 25.9461 41.9173 24.3129C47.0112 22.4138 51.1946 19.0909 54.4716 14.9396M21.4574 19.6983C21.4432 18.553 20.625 18.7014 21.1248 19.3046C21.2347 19.4373 21.3456 19.5686 21.4574 19.6983ZM54.4716 14.9396C54.6846 14.6698 54.8938 14.3964 55.0992 14.1197M54.4716 14.9396C54.5007 14.8685 54.5328 14.7944 54.5675 14.7179M54.4716 14.9396C54.1759 15.6619 54.1844 16.0847 54.8278 15.7979C57.663 14.5343 59.9327 11.8926 62.3344 9.89109M55.0992 14.1197C55.2198 13.9573 55.339 13.7936 55.457 13.6289M55.0992 14.1197C54.9229 14.3202 54.7454 14.5195 54.5675 14.7179M55.0992 14.1197C55.4207 13.7541 55.7386 13.3847 56.049 13.01M55.457 13.6289C56.1535 12.6561 56.8039 11.6443 57.4084 10.6004C57.4292 10.5645 57.4489 10.5297 57.4674 10.4961M55.457 13.6289C55.6542 13.4225 55.8515 13.2162 56.049 13.01M55.457 13.6289C55.2106 13.8867 54.9643 14.1446 54.7181 14.4025M57.4674 10.4961C57.5676 10.3144 57.6348 10.167 57.6738 10.0493M57.4674 10.4961C57.2095 10.7061 56.9512 10.9155 56.6923 11.1242M57.4674 10.4961C57.5776 10.4064 57.6877 10.3166 57.7977 10.2268M57.6738 10.0493C57.7415 9.84535 57.725 9.73053 57.6505 9.68067M57.6738 10.0493C57.7443 10.0855 57.7832 10.1476 57.7977 10.2268M57.6738 10.0493C57.6167 10.0199 57.5388 10.0077 57.4362 10.0172M57.6505 9.68067C57.4011 9.51375 56.5018 10.0753 55.9388 10.4593C55.8193 10.5407 55.6999 10.6223 55.5806 10.7041M57.6505 9.68067C58.0518 9.02326 58.3003 8.40768 57.1489 9.10037C56.366 9.57139 55.6119 10.0952 54.8627 10.6249M57.6505 9.68067C57.5815 9.79376 57.5079 9.90809 57.4362 10.0172M55.5806 10.7041C54.8579 11.1994 54.1384 11.7009 53.4282 12.2151M55.5806 10.7041C56.0788 10.4857 56.5794 10.2844 57.0826 10.1045C57.2239 10.0539 57.3407 10.0261 57.4362 10.0172M55.5806 10.7041C55.126 10.9034 54.6734 11.1169 54.2228 11.3415M53.4282 12.2151C52.706 12.738 51.9934 13.2741 51.2973 13.8301C50.9249 14.1276 50.0178 14.7317 49.324 15.3734M53.4282 12.2151C52.3132 13.4245 51.1569 14.6032 49.9277 15.6912M53.4282 12.2151C53.6953 11.9254 53.96 11.6339 54.2228 11.3415M49.324 15.3734C48.8574 15.805 48.4873 16.2535 48.4412 16.6372C48.3787 17.1586 49.3906 16.1621 49.7857 15.8162C49.8331 15.7747 49.8805 15.733 49.9277 15.6912M49.324 15.3734C49.3578 15.1786 49.4758 14.8999 49.6987 14.5191C49.8107 14.3278 49.9291 14.1371 50.0531 13.9474M49.324 15.3734C49.2581 15.7523 49.5105 15.8136 49.9277 15.6912M49.9277 15.6912C51.098 15.3478 53.5653 13.5581 53.9435 13.2739C54.8736 12.5748 55.7867 11.8542 56.6923 11.1242M54.2228 11.3415C54.3197 11.2337 54.4163 11.1258 54.5127 11.0178L54.5183 11.0114C54.633 10.883 54.7479 10.7542 54.8627 10.6249M54.2228 11.3415C53.6863 11.6089 53.1527 11.8919 52.6217 12.1852M54.8627 10.6249C55.7683 9.60564 56.6705 8.55667 57.3977 7.405C58.0085 6.43765 57.5106 6.67968 56.8048 7.21196C54.5841 8.88667 52.0529 11.1004 50.3663 13.4869M54.8627 10.6249C54.322 11.0072 53.7839 11.3925 53.2392 11.7632C53.0335 11.9032 52.8277 12.0439 52.6217 12.1852M50.3663 13.4869C50.2583 13.6398 50.1538 13.7933 50.0531 13.9474M50.3663 13.4869C51.1129 13.0425 51.8645 12.6034 52.6217 12.1852M50.3663 13.4869C48.8011 14.4187 47.2584 15.3738 45.7355 16.2084C45.3025 16.4457 41.113 19.0357 43.1321 18.0754C45.5406 16.9299 47.8233 15.4617 50.0531 13.9474M50.0531 13.9474C50.9158 13.3616 51.7706 12.7688 52.6217 12.1852M56.6923 11.1242C57.0077 10.649 57.2444 10.3055 57.3069 10.212C57.3483 10.1501 57.3919 10.0847 57.4362 10.0172M56.6923 11.1242C56.1016 12.0141 55.2347 13.3659 54.7181 14.4025M57.7977 10.2268C58.2756 9.83669 58.7524 9.44536 59.2297 9.05458C60.2493 8.21986 61.4055 6.94592 62.6107 6.36275C63.3185 6.02028 61.4932 7.46922 60.9336 8.02149C59.2771 9.65603 57.6587 11.3291 56.049 13.01M57.7977 10.2268C57.8454 10.4866 57.6312 10.9303 57.4084 11.2459C56.9822 11.8497 56.5244 12.436 56.049 13.01M54.7181 14.4025C54.5524 14.5759 54.3868 14.7494 54.2212 14.9228C53.292 15.8955 52.3027 16.8434 51.4491 17.8854C50.926 18.524 53.3838 16.0267 53.5123 15.8849C53.8626 15.4983 54.216 15.1099 54.5675 14.7179M54.7181 14.4025C54.6638 14.5114 54.6134 14.6168 54.5675 14.7179M62.3344 9.89109C62.5374 9.72198 62.7412 9.55744 62.9464 9.39869C64.2354 8.40163 63.28 9.56366 61.6975 11.328M62.3344 9.89109C62.0666 10.4134 61.8492 10.9152 61.6975 11.328M62.3344 9.89109C63.5083 7.60194 65.6509 4.92013 67.4743 7.62627C69.0147 9.9124 69.0118 12.9744 69.6799 15.6892M61.6975 11.328C59.987 13.2351 57.5438 15.8459 56.4103 17.1942C55.4187 18.3738 54.4483 19.6232 53.6711 20.9572C52.9254 22.237 55.9279 19.321 56.0685 19.1795C57.1483 18.0924 58.9251 16.317 60.7332 14.5161M61.6975 11.328C61.6755 11.388 61.6548 11.4462 61.6356 11.5023C61.2941 12.4975 61.0041 13.5044 60.7332 14.5161M60.7332 14.5161C61.4113 13.8407 62.0938 13.1618 62.7456 12.5142M60.7332 14.5161C60.6992 14.643 60.6655 14.7699 60.632 14.8969M62.7456 12.5142C63.8874 11.3799 64.9349 10.3419 65.6995 9.58825M62.7456 12.5142C63.3036 11.5067 63.9349 10.5729 64.6892 9.83741C65.2612 9.27966 65.5633 9.28405 65.6995 9.58825M62.7456 12.5142C62.6701 12.6505 62.596 12.7881 62.523 12.9268M65.6995 9.58825C66.9752 8.33084 67.4632 7.86496 66.287 9.06374C66.0981 9.25623 65.9093 9.4488 65.7206 9.64146M65.6995 9.58825C65.707 9.60509 65.7141 9.62284 65.7206 9.64146M65.7206 9.64146C64.6515 10.7329 63.5848 11.8273 62.523 12.9268M65.7206 9.64146C65.8325 9.96044 65.8006 10.5357 65.7134 11.1439M62.523 12.9268C61.8908 13.5816 61.2602 14.2381 60.632 14.8969M62.523 12.9268C61.7347 14.4258 61.0888 16.046 60.43 17.3971C60.2845 17.6954 60.0919 18.0924 59.8777 18.5393M60.632 14.8969C57.95 17.7095 55.3103 20.5627 52.7554 23.4896C51.9247 24.4413 51.3874 25.0741 50.6464 26.0319C50.4267 26.3158 49.8185 26.6608 50.0543 26.9315C50.2804 27.191 56.0392 21.8554 56.3081 21.6165C57.4008 20.6453 58.5033 19.685 59.6256 18.749M60.632 14.8969C60.3047 16.1399 59.9998 17.389 59.657 18.6316C59.6465 18.6698 59.636 18.7089 59.6256 18.749M59.6256 18.749C59.7095 18.6789 59.7936 18.6091 59.8777 18.5393M59.6256 18.749C59.5746 18.9443 59.524 19.162 59.4717 19.3937M59.8777 18.5393C60.8328 17.748 61.8026 16.9749 62.7934 16.2281M59.8777 18.5393C59.7483 18.8095 59.6111 19.0979 59.4717 19.3937M62.7934 16.2281C63.1899 15.9292 63.5897 15.6346 63.9933 15.3447C64.0232 15.3232 64.3955 15.0504 64.8861 14.7249M62.7934 16.2281C63.5105 14.6957 64.478 12.5821 65.7134 11.1439M62.7934 16.2281C62.642 16.5514 62.5019 16.8489 62.3726 17.1087C62.0246 17.8085 61.5004 18.7379 61.0188 19.7374M64.8861 14.7249C65.7868 14.1274 67.0865 13.3523 67.3997 13.6283M64.8861 14.7249C64.6381 15.6374 64.3689 16.5467 64.0643 17.4429M64.8861 14.7249C65.0024 14.2971 65.1141 13.8685 65.2226 13.4403C65.2476 13.3414 65.5629 12.1935 65.7134 11.1439M67.3997 13.6283C67.4893 13.7072 67.4982 13.872 67.3942 14.1514C67.2602 14.5109 67.1049 14.8673 66.9323 15.2203M67.3997 13.6283C67.6752 13.0541 68.0575 12.5046 68.5121 12.3098M67.3997 13.6283C67.1758 14.0952 67.0225 14.5784 66.9585 14.9006C66.9506 14.9404 66.9366 15.0689 66.9323 15.2203M66.9323 15.2203C66.5822 15.9362 66.1608 16.638 65.702 17.324M66.9323 15.2203C66.9213 15.6054 66.9724 16.1385 67.343 15.7353C68.1143 14.8963 68.3819 13.507 68.5121 12.3098M65.702 17.324C65.1805 18.1036 64.6108 18.8628 64.0424 19.5989M65.702 17.324C66.0731 17.0945 66.372 16.9923 66.4991 17.1385C67.0804 17.8067 66.0534 18.8646 65.6689 19.6625C65.3119 20.4036 64.9349 21.1334 64.5448 21.856M65.702 17.324C65.437 17.4879 65.1352 17.7167 64.8328 17.9664M64.0424 19.5989C63.5347 20.2564 63.0281 20.8954 62.5581 21.5142C62.3698 21.762 62.1805 22.009 61.9901 22.2551M64.0424 19.5989C63.4461 20.5292 62.6472 21.4883 61.9901 22.2551M64.0424 19.5989C64.4093 19.0266 64.6995 18.4653 64.8328 17.9664M61.9901 22.2551C59.4599 25.5277 56.76 28.6638 54.2052 31.9169C53.7211 32.5332 52.2986 34.3778 52.8943 33.8686C55.3446 31.774 57.4 29.1238 59.6151 26.7918C61.2136 25.1089 62.8317 23.4259 64.5448 21.856M61.9901 22.2551C61.5745 22.7402 61.2156 23.1482 61.0007 23.4232C59.7902 24.9724 58.6785 26.3029 57.4168 27.7914C55.7009 29.8156 53.9877 32.0452 51.942 33.7541C51.4996 34.1237 51.3194 34.1717 51.62 33.6061C51.7297 33.3997 51.8533 33.2008 51.9833 33.0062M64.5448 21.856C64.6718 21.7397 64.7992 21.6239 64.9273 21.5089C66.5419 20.0579 65.8313 21.1598 65.0936 22.3036L64.9735 22.4899C63.2999 25.0845 61.6176 27.6926 60.4666 30.5725L60.4359 30.6493C60.4219 30.6842 60.4078 30.7195 60.3936 30.7551M64.5448 21.856C63.3541 24.0619 62.0418 26.1996 60.8039 28.3804C60.7405 28.492 58.8714 32.3007 59.6013 31.5827C59.8723 31.3161 60.1359 31.0395 60.3936 30.7551M60.3936 30.7551C59.7508 32.3639 58.8122 34.7622 59.0369 36.5506M60.3936 30.7551C61.8452 29.1528 63.106 27.3037 64.4069 25.6161C65.5703 24.1068 66.7088 22.5731 67.914 21.0953M59.0369 36.5506C59.045 36.6147 59.0546 36.678 59.0657 36.7405C59.0749 36.7926 59.0934 36.827 59.1192 36.8464M59.0369 36.5506C59.0016 36.5792 58.9694 36.6055 58.9405 36.6291C54.587 40.19 50.5815 44.1459 46.5838 48.0941L46.5154 48.1617C45.7003 48.9667 44.8827 49.8383 44.0383 50.6908M59.0369 36.5506C59.4266 36.2345 60.1912 35.6288 60.9254 35.1254M59.1192 36.8464C59.1679 36.8832 59.2429 36.8668 59.3322 36.8167M59.1192 36.8464C59.2223 36.7303 59.309 36.6639 59.3282 36.7756C59.3305 36.7895 59.3319 36.8032 59.3322 36.8167M59.1192 36.8464C59.0105 36.9688 58.8835 37.1465 58.7979 37.2296C57.6083 38.3837 55.9305 40.1991 54.8995 41.3147L54.8255 41.3947C50.1192 46.4868 45.5107 51.6691 40.9338 56.8773C39.6233 58.3685 37.8165 60.4421 36.4594 61.9734C35.9662 62.5298 35.4809 63.0936 34.9722 63.6359L34.9439 63.6661C34.6103 64.0222 33.9591 64.717 34.5541 63.7198C36.903 59.783 39.7914 56.0983 42.6147 52.5023L42.6896 52.407C43.1383 51.8355 43.5877 51.2631 44.0383 50.6908M59.3322 36.8167C59.6018 36.6653 60.0014 36.2065 60.1988 35.9775C60.4425 35.6948 60.6845 35.4106 60.9254 35.1254M59.3322 36.8167C59.3383 37.068 59 37.2419 58.8352 37.4478C58.4002 37.9915 57.9493 38.5224 57.503 39.0569C53.7448 43.5573 50.0079 48.0608 46.4558 52.7282C43.4984 56.6143 40.5496 60.5346 37.845 64.6034C37.5255 65.0841 36.6525 66.5362 37.0927 66.1629C39.5759 64.0575 41.6363 61.2146 43.8509 58.8352C44.2393 58.4178 44.627 57.9977 45.0142 57.5756M60.9254 35.1254C62.3827 33.4001 63.7992 31.6385 65.3017 29.9524M60.9254 35.1254C62.3155 34.1722 63.5969 33.5856 62.0186 36.0248C59.3932 40.0823 56.1404 43.8026 53.1369 47.5765C50.5772 50.7928 47.352 54.0454 45.0142 57.5756M65.3017 29.9524C65.5363 29.6891 65.773 29.4277 66.0123 29.1686C66.1395 29.0308 66.2584 28.912 66.3696 28.8108M65.3017 29.9524C64.9872 31.1569 64.7034 32.3666 64.4633 33.5832C63.8344 36.7715 65.4816 31.9417 65.5736 31.63C65.8499 30.6936 66.1129 29.7532 66.3696 28.8108M65.3017 29.9524C65.9282 27.5535 66.6763 25.1755 67.4423 22.8052M66.3696 28.8108C67.3538 27.9155 67.7319 28.398 67.8389 29.3156M66.3696 28.8108C66.4743 28.4267 66.5779 28.0423 66.6809 27.6577M67.8389 29.3156C67.8877 29.7334 67.8802 30.2413 67.8481 30.7505M67.8389 29.3156C68.6554 27.8893 69.5203 26.4275 70.0327 25.5779C70.2607 25.1998 72.0949 22.0437 71.1643 24.3815C70.7744 25.3611 70.3821 26.3382 69.9972 27.3181M67.8389 29.3156C66.3816 31.8614 65.0785 34.2943 66.2092 32.9316C66.7787 32.2452 67.3247 31.5112 67.8481 30.7505M67.8481 30.7505C67.8035 31.4577 67.7115 32.1672 67.6566 32.6409C67.5613 33.4638 66.5997 35.6332 67.2232 35.0878C67.9131 34.4845 68.3366 31.781 68.6249 30.9662C69.0588 29.7396 69.5224 28.5268 69.9972 27.3181M67.8481 30.7505C68.6113 29.6414 69.3266 28.4756 69.9972 27.3181M69.9972 27.3181C70.3001 26.7951 70.5939 26.2739 70.8789 25.7603C72.0637 23.625 71.713 20.5563 71.6763 18.199C71.6658 17.5245 71.618 16.8239 71.4782 16.1552M71.4782 16.1552C71.4482 16.0115 71.4139 15.8694 71.3749 15.7292C71.2586 15.312 71.1222 15.1204 70.9773 15.0843M71.4782 16.1552C71.4892 16.1114 71.5 16.0676 71.5107 16.0237C72.0567 13.7842 72.1341 11.0269 71.0956 8.89741C70.6319 7.94644 69.8766 7.96384 69.7168 9.0851C69.4616 10.875 70.7451 13.1015 70.9636 14.896C70.9678 14.9304 70.9726 14.9956 70.9773 15.0843M71.4782 16.1552C70.5541 19.8513 68.6974 23.4227 67.0836 26.8506C66.9944 27.0402 66.8403 27.3569 66.6809 27.6577M70.9773 15.0843C70.623 14.9959 70.2179 15.8368 69.931 16.5811M70.9773 15.0843C71.0242 15.9754 71.0571 19.2431 70.3005 17.5528C70.1596 17.238 70.0379 16.9133 69.931 16.5811M69.931 16.5811C69.7372 17.0837 69.5974 17.5423 69.5634 17.6413C69.2926 18.4311 69.0375 19.2255 68.7937 20.0234M69.931 16.5811C69.8398 16.298 69.7593 16.0094 69.6867 15.7168M68.7937 20.0234C68.4337 21.2016 68.0984 22.3872 67.7737 23.5759M68.7937 20.0234C69.096 19.594 69.5053 18.8714 69.6748 19.2367C69.9492 19.8278 68.3761 22.2584 68.1274 22.8159C68.0183 23.0606 67.8986 23.3146 67.7737 23.5759M68.7937 20.0234C68.7472 20.0895 68.7032 20.1486 68.6631 20.1958C68.457 20.4377 68.2533 20.6817 68.0515 20.9273M67.7737 23.5759C67.4026 24.9345 67.0453 26.2972 66.6809 27.6577M67.7737 23.5759C67.0674 25.0531 66.1938 26.7611 66.1161 28.3049C66.0973 28.6771 66.3974 28.1927 66.6809 27.6577M67.4423 22.8052C67.6338 22.2127 67.8265 21.6206 68.0186 21.0288M67.4423 22.8052C67.5153 22.4051 67.6997 21.7694 67.914 21.0953M67.4423 22.8052C67.3988 23.044 67.395 23.1989 67.4483 23.2279C67.5628 23.2901 67.7804 22.3341 68.0186 21.0288M68.0186 21.0288C68.0296 20.9949 68.0406 20.9611 68.0515 20.9273M68.0186 21.0288C68.0234 21.0026 68.0281 20.9764 68.0329 20.95M68.0515 20.9273C68.6154 19.1898 69.1742 17.4547 69.6867 15.7168M68.0515 20.9273C68.0453 20.9348 68.0391 20.9424 68.0329 20.95M69.6867 15.7168C69.7047 15.6558 69.7226 15.5949 69.7405 15.5339C69.8333 15.2172 69.7885 15.3484 69.6799 15.6892M69.6867 15.7168C69.6844 15.7076 69.6822 15.6984 69.6799 15.6892M69.6799 15.6892C69.4826 16.3084 69.0745 17.6197 68.8981 18.1929C68.8441 18.3684 68.4759 19.3876 68.1192 20.4641M68.1192 20.4641C68.0496 20.6743 67.9804 20.8866 67.914 21.0953M68.1192 20.4641C68.0903 20.6301 68.0615 20.7924 68.0329 20.95M68.1192 20.4641C68.542 18.0387 68.9922 14.8333 69.0301 14.4032C69.0449 14.2343 69.405 12.1436 68.7371 12.2446C68.6603 12.2563 68.5853 12.2784 68.5121 12.3098M67.914 21.0953C67.9536 21.0468 67.9932 20.9983 68.0329 20.95M68.5121 12.3098C68.5424 12.0312 68.5652 11.7629 68.5852 11.5145C68.6337 10.9124 68.8452 9.30371 67.7116 9.66803C66.9806 9.90295 66.3152 10.4433 65.7134 11.1439M61.0188 19.7374C60.5023 20.8095 60.0347 21.9622 59.8861 22.9991M61.0188 19.7374C62.1236 18.8203 63.2987 17.8973 64.0643 17.4429M61.0188 19.7374C60.2295 20.3927 59.4761 21.0449 58.9338 21.5213M59.8861 22.9991C59.8274 23.4088 59.8185 23.8004 59.876 24.1618C60.034 25.1541 62.6322 20.9229 62.7847 20.607C62.9929 20.1757 63.1876 19.738 63.3706 19.2952M59.8861 22.9991C60.9035 21.8193 61.957 20.6741 63.0701 19.593C63.0806 19.5828 63.1926 19.4691 63.3706 19.2952M59.8861 22.9991C58.1955 24.9596 56.6046 27.0156 55.0064 29.0312C54.6514 29.4788 54.0145 30.2875 53.4052 31.0798M63.3706 19.2952C63.6223 18.6863 63.8519 18.0678 64.0643 17.4429M63.3706 19.2952C63.7043 18.9692 64.2696 18.4315 64.8328 17.9664M64.0643 17.4429C64.5598 17.1488 64.8837 17.051 64.9059 17.2781C64.9264 17.4881 64.8988 17.7196 64.8328 17.9664M59.4717 19.3937C59.0214 20.3494 58.5489 21.3828 58.2459 22.1308M59.4717 19.3937C59.3226 20.0542 59.1596 20.8282 58.9338 21.5213M58.2459 22.1308C57.8731 23.0513 57.7572 23.5394 58.2561 22.9174C58.5374 22.5667 58.7552 22.0693 58.9338 21.5213M58.2459 22.1308C58.3858 22.0054 58.6258 21.7917 58.9338 21.5213M58.2459 22.1308C58.1595 22.2082 58.1113 22.2519 58.1088 22.2543C53.6209 26.7394 49.4389 31.5671 45.3815 36.4414C44.2104 37.8482 42.071 39.8115 41.3962 41.6168C41.2505 42.0064 42.76 41.156 42.9047 41.0499C42.9414 41.0229 42.9753 40.9985 43.0064 40.9765M53.4052 31.0798C52.9325 31.6945 52.4764 32.2993 52.1816 32.718C52.1145 32.8133 52.0481 32.9092 51.9833 33.0062M53.4052 31.0798C52.9748 31.1227 47.832 36.1426 43.0064 40.9765M53.4052 31.0798C53.5264 31.0678 53.274 31.4503 52.5357 32.3426C52.3522 32.5643 52.1681 32.7855 51.9833 33.0062M51.9833 33.0062C49.5326 35.9338 46.9781 38.775 44.53 41.7053C42.972 43.5699 41.6817 45.1333 40.2234 47.0378C39.6396 47.8003 37.9079 49.9759 38.7492 49.513C41.015 48.2664 42.9998 45.4586 44.7146 43.6395C48.9818 39.1124 53.282 34.6203 57.6083 30.1498C57.7049 30.0499 58.0078 29.7391 58.3243 29.4091M43.0064 40.9765C43.7694 40.4373 42.8761 41.3607 41.53 42.4595M43.0064 40.9765C42.509 41.4747 42.0151 41.9709 41.53 42.4595M41.53 42.4595C40.2248 43.5249 38.4941 44.7551 37.4345 44.977C36.8097 45.1078 36.2033 45.0697 35.6048 44.9768M41.53 42.4595C39.3479 44.6574 37.3454 46.7008 36.0237 48.0755C35.0293 49.1097 33.6127 51.0041 32.2146 51.6592C31.9815 51.7685 32.0637 51.1208 32.1734 50.8879C33.1206 48.8772 34.4426 47.0463 35.53 45.1113C35.5548 45.0671 35.5798 45.0222 35.6048 44.9768M35.6048 44.9768C35.3074 44.9306 35.0119 44.8709 34.7171 44.8118M35.6048 44.9768C36.1778 43.9366 36.7547 42.64 35.2072 44.2849C35.0429 44.4597 34.8795 44.6353 34.7171 44.8118M34.7171 44.8118C32.8819 46.8047 31.1567 48.8988 29.3121 50.8833L29.3075 50.8883C29.2076 50.9965 27.7291 52.5986 26.9206 52.8971M26.5331 51.652C26.5014 51.7748 26.4746 51.8973 26.4534 52.0195M26.5331 51.652C26.5074 51.6435 26.4805 51.6362 26.4522 51.6303C26.2486 51.5873 26.0824 51.642 25.9478 51.7701M26.5331 51.652C26.958 51.7934 27.0293 52.2815 26.9206 52.8971M26.4534 52.0195C26.43 52.1541 26.4135 52.2882 26.4049 52.4215C26.3959 52.5618 26.4064 52.6704 26.4335 52.7513M26.4534 52.0195C26.5215 52.0202 26.5 52.3194 26.4335 52.7513M26.4534 52.0195C26.4499 52.0194 26.4463 52.0201 26.4423 52.0217C26.1363 52.1404 26.0037 51.9975 25.9478 51.7701M26.4335 52.7513C26.5032 52.9599 26.683 52.9848 26.9206 52.8971M26.4335 52.7513C26.2862 53.7071 25.9185 55.3126 25.8142 55.7692M26.9206 52.8971C26.7591 53.8126 26.1996 55.0103 25.8142 55.7692M58.3243 29.4091C58.6098 29.1115 58.9063 28.7982 59.0725 28.6101C59.2838 28.3708 58.6279 29.0683 58.4156 29.3067C58.3852 29.3408 58.3547 29.375 58.3243 29.4091ZM58.3243 29.4091C53.7132 34.5887 49.1757 39.8724 44.9664 45.3852C43.8669 46.8252 41.6894 49.7959 40.6354 51.4052C40.1034 52.2176 39.1818 53.0605 39.3459 54.0177C39.4172 54.4332 40.2275 53.9566 40.5744 53.717C41.1725 53.304 41.7478 52.8396 42.3063 52.3451M42.3063 52.3451C42.9003 51.8192 43.4753 51.2593 44.0383 50.6908M42.3063 52.3451C43.371 51.164 44.5257 49.8871 45.7056 48.5834M42.3063 52.3451C40.8698 53.9389 39.597 55.3584 38.647 56.4348C37.3706 57.8809 36.1162 59.3466 34.8181 60.7732C34.1377 61.5209 33.653 61.9814 34.5137 60.5512C36.8756 56.626 39.5086 52.854 42.0944 49.075C42.7898 48.0586 44.8407 45.0136 43.9882 45.9025C41.8317 48.1512 40.006 50.7442 38.1297 53.2211C36.4662 55.417 34.8177 57.6261 33.1005 59.7805C31.5021 61.786 32.5266 59.5198 32.8358 58.4491C33.3642 56.6186 33.8641 54.76 34.1405 52.8716C34.4368 50.8482 33.5506 51.7237 32.8846 52.9319C31.2327 55.9289 27.7445 65.6031 28.7764 62.3404C29.3425 60.5505 30.0145 58.7959 30.6153 57.0177C30.716 56.7198 32.231 51.8042 31.4341 52.3665C29.3594 53.8307 27.3602 61.5036 27.6563 58.9817C27.8511 57.3223 28.3235 55.6929 28.5811 54.0421C28.8912 52.0551 28.3669 51.9001 27.6212 53.7407C27.2922 54.5527 26.2658 60.0379 25.6221 56.9063C25.6125 56.86 25.6012 56.7936 25.5888 56.7101M44.0383 50.6908C44.5918 49.9878 45.1472 49.2849 45.7056 48.5834M45.0142 57.5756C44.597 58.2057 44.2081 58.8445 43.8562 59.4936C42.9139 61.2321 46.7314 56.7732 48.0666 55.3147C51.7077 51.3375 55.3717 47.3844 59.1402 43.5293M45.0142 57.5756C49.3066 52.8972 53.5514 47.9756 58.3377 43.8348C58.5095 43.6862 59.0237 43.4724 59.1402 43.5293M59.1402 43.5293C60.0274 42.6218 60.9204 41.7197 61.8202 40.824C63.1723 39.4782 67.2036 35.4218 65.9375 36.8488C63.1202 40.0245 60.2424 43.1463 57.3877 46.2892M59.1402 43.5293C59.1672 43.5425 59.1729 43.5702 59.1481 43.6166C58.6441 44.5579 58.0272 45.4307 57.3877 46.2892M57.3877 46.2892C55.9515 47.8705 54.5211 49.4572 53.1072 51.0588C51.6733 52.683 49.1656 55.526 47.6721 57.3382C47.3025 57.7867 46.9028 58.2177 46.6039 58.7162C46.161 59.4545 47.8929 57.5698 48.4733 56.9338C50.7375 54.4526 52.919 51.903 55.1239 49.3738M57.3877 46.2892C56.902 46.9414 56.4032 47.5853 55.9311 48.2449C55.6619 48.6211 55.3928 48.9974 55.1239 49.3738M55.1239 49.3738C57.0969 47.1106 59.0887 44.8638 61.1754 42.6972C61.6867 42.1663 63.6217 40.1454 64.4824 39.4392C64.5802 39.359 64.8436 39.1573 64.8281 39.2828C64.7942 39.5574 64.5636 39.7694 64.413 40.0015C61.782 44.0566 58.507 47.7474 55.5161 51.5334C54.0455 53.3948 52.5519 55.251 51.147 57.1678M55.1239 49.3738C51.4946 54.4543 47.8983 59.5559 44.3215 64.673M51.147 57.1678C50.7196 57.751 50.3004 58.3397 49.8925 58.9359C49.7309 59.1721 49.4134 59.6498 49.8605 59.148C50.9719 57.9005 52.0009 56.5715 53.0637 55.2835C53.2192 55.0949 53.3749 54.9059 53.5306 54.7164M51.147 57.1678C51.9365 56.3458 52.7319 55.5294 53.5306 54.7164M51.147 57.1678C49.2008 59.1943 47.2911 61.2551 45.4593 63.3857C45.1 63.8036 44.7163 64.233 44.3215 64.673M53.5306 54.7164C56.9832 50.5168 60.4928 46.1185 64.6251 42.5743L64.6597 42.5446C65.306 41.9905 65.6783 41.6712 66.1565 40.9591C66.7495 40.0761 67.4995 39.3053 68.2175 38.5244C68.7215 37.9761 67.5807 39.8757 67.1767 40.5013C64.3456 44.8852 59.8005 48.3885 56.1585 52.0583C55.2811 52.9424 54.404 53.8274 53.5306 54.7164ZM44.3215 64.673C42.5421 66.6563 40.5387 68.8551 39.5382 71.1895C38.8937 72.6934 41.5677 68.6199 42.5033 67.2777C43.1089 66.409 43.7149 65.5408 44.3215 64.673ZM45.7056 48.5834C48.9638 44.4906 52.3251 40.4497 56.0143 36.7634C60.4336 32.3476 52.6335 40.9288 45.7056 48.5834ZM25.5888 56.7101C25.5726 56.6008 25.5546 56.4623 25.5366 56.3016M25.5888 56.7101C25.211 58.2379 24.4297 61.2251 24.186 60.9815C23.2632 60.0587 25.0864 57.1567 25.4634 56.4394C25.4813 56.4053 25.5061 56.3588 25.5366 56.3016M25.5888 56.7101C25.6988 56.2653 25.7746 55.9441 25.793 55.8626C25.7978 55.8414 25.8049 55.8099 25.8142 55.7692M25.5366 56.3016C25.3958 55.0455 25.2535 52.431 25.9478 51.7701M25.5366 56.3016C25.6051 56.1729 25.7023 55.9895 25.8142 55.7692M25.9478 51.7701C25.8924 51.5449 25.9123 51.2368 25.9135 51.0176C25.9148 50.7977 25.9928 49.2355 25.558 50.0936C24.7874 51.6143 24.4106 53.395 23.935 55.0256C22.1145 61.2672 22.5656 69.2731 25.7029 75.0739C26.2328 76.0536 25.6538 76.6835 26.762 77.3438C27.9571 78.0559 29.3376 78.5676 30.3895 79.5C35.4584 83.9932 42.7798 83.7942 49.0227 85.2606M57.7853 58.1225C56.421 59.2057 54.5818 60.3454 53.0289 61.6952M53.0289 61.6952C51.8957 62.6801 50.9151 63.7769 50.3826 65.0451M53.0289 61.6952C53.0863 61.6293 53.144 61.5636 53.2018 61.498C54.7348 59.7592 57.0401 56.8639 59.472 55.971M53.0289 61.6952C52.0937 62.7672 51.2028 63.8819 50.3826 65.0451M50.3826 65.0451C50.303 65.2348 50.2334 65.4283 50.1748 65.6258C50.1435 65.7315 50.0946 65.9346 50.0709 66.1485M50.3826 65.0451C49.2754 66.6155 48.2972 68.2743 47.5134 70.0359C47.1613 70.8272 46.6921 71.9496 46.4596 73.0759M50.0709 66.1485C50.0228 66.5832 50.0784 67.063 50.5953 66.8634C50.6905 66.8266 50.7849 66.7851 50.8782 66.7395M50.0709 66.1485C51.7464 63.7274 53.905 61.5334 55.9433 59.6104C56.6421 58.9512 59.573 56.7567 57.9364 59.1633C57.7857 59.3849 57.6298 59.6032 57.4696 59.8188M50.0709 66.1485C49.2969 67.267 48.626 68.434 48.1177 69.6452C47.4784 71.1687 48.3162 70.9652 49.3408 70.3547M50.8782 66.7395C52.2331 66.078 53.3908 64.5368 54.3387 63.4818C55.4049 62.295 56.5134 61.1063 57.4696 59.8188M50.8782 66.7395C52.6182 64.0981 55.2648 61.7704 57.4696 59.8188M50.8782 66.7395C50.3488 67.5433 49.9032 68.3762 49.5797 69.2363C49.3963 69.7238 49.325 70.0893 49.3408 70.3547M57.4696 59.8188C57.4884 59.8022 57.5072 59.7856 57.5259 59.7691L57.5364 59.7597C57.6784 59.6337 58.8372 58.6053 59.7773 57.9292M49.3408 70.3547C49.8315 70.0624 50.3651 69.6767 50.7997 69.3427M49.3408 70.3547C49.3651 70.7605 49.5931 70.9324 49.9361 70.9485M50.7997 69.3427C51.2284 69.0133 51.5608 68.7341 51.6612 68.6442C54.6374 65.9788 57.4707 62.8444 59.8164 59.5969M50.7997 69.3427C52.2517 66.8157 54.0629 64.4334 56.0074 62.4411L56.0653 62.3817C57.1006 61.3209 58.3877 60.0019 59.8249 58.8895M50.7997 69.3427C50.4954 69.8723 50.2068 70.4083 49.9361 70.9485M59.8164 59.5969C59.8629 59.5325 59.9092 59.4681 59.9554 59.4036C60.1455 59.1377 60.5709 58.647 60.8207 58.1727M59.8164 59.5969C59.7915 60.3234 59.7204 61.0479 59.6364 61.7727C59.6245 61.8757 59.5898 62.0884 59.5917 62.2102M59.8164 59.5969C59.8245 59.3613 59.8277 59.1256 59.8249 58.8895M60.8207 58.1727C60.9615 57.9054 61.0465 57.6433 61.0022 57.4297C60.9496 57.1755 60.4136 57.4717 59.7773 57.9292M60.8207 58.1727C61.1655 57.9438 61.517 57.7315 61.874 57.5412M60.8207 58.1727C60.4819 58.3975 60.1496 58.6382 59.8249 58.8895M59.7773 57.9292C59.7835 57.9942 59.7889 58.0591 59.7936 58.1241C59.812 58.3796 59.822 58.6347 59.8249 58.8895M59.7773 57.9292C59.715 57.2734 59.5811 56.617 59.472 55.971M49.9361 70.9485C50.9595 70.9964 53.006 69.6576 53.7161 69.0074C55.1766 67.6698 56.4773 66.126 57.6983 64.5721C58.2595 63.858 58.9414 63.0601 59.5917 62.2102M49.9361 70.9485C49.4819 71.8548 49.078 72.7726 48.7342 73.6914C48.0811 75.4368 48.4409 77.8343 50.6098 76.0315C53.5248 73.6084 55.8478 70.2909 57.8921 67.135C59.2601 65.0233 60.7145 62.8285 61.9853 60.5466M59.5917 62.2102C60.6187 60.8681 61.5667 59.3963 61.8355 57.9196C61.8583 57.7942 61.8711 57.6673 61.874 57.5412M59.5917 62.2102C59.593 62.2874 59.6089 62.328 59.6547 62.2808C60.3076 61.6084 61.1376 61.0278 61.9853 60.5466M61.874 57.5412C61.898 56.5089 61.2613 55.527 60.0637 55.7954C59.8659 55.8398 59.6685 55.8988 59.472 55.971M61.874 57.5412C62.5159 57.1992 63.1755 56.9286 63.8456 56.7623M59.472 55.971C59.3907 55.4897 59.3232 55.0142 59.3092 54.5491M46.4596 73.0759C46.4424 73.1589 46.4266 73.2419 46.4122 73.3249M46.4596 73.0759C46.4486 73.1582 46.4327 73.2413 46.4122 73.3249M46.4596 73.0759C46.507 72.7198 46.4615 72.3771 46.2933 72.0601C45.3616 70.3042 40.9855 74.2051 40.3333 74.8793C39.2261 76.0238 37.6967 77.8291 37.2787 79.5706M46.4122 73.3249C46.2453 74.2839 46.2693 75.2284 46.7033 75.9556M46.4122 73.3249C45.9607 75.1635 43.2862 77.2732 42.3156 78.0259C41.0103 79.0384 38.8278 80.0404 37.2787 79.5706M46.7033 75.9556C46.7419 76.0203 46.7837 76.0833 46.829 76.1444C47.1609 76.5928 47.5596 76.931 48.009 77.1765M46.7033 75.9556C47.7777 75.5343 48.6729 76.0646 48.009 77.1765M46.7033 75.9556C46.6146 75.9904 46.5248 76.0316 46.4345 76.0795C45.4567 76.5984 41.9679 79.722 42.0636 81.4626M48.009 77.1765C50.0302 78.2807 53.079 77.5105 55.713 76.4533M48.009 77.1765C47.958 77.262 47.8978 77.3509 47.8278 77.443C46.4914 79.2009 44.4055 80.5019 42.3919 81.3343C42.294 81.3747 42.1839 81.418 42.0636 81.4626M55.713 76.4533C57.3661 75.7898 58.8559 75.0133 59.8256 74.5162C62.2084 73.2947 64.342 71.7542 66.3908 70.0359C66.6015 69.8592 67.1167 69.4663 67.5782 69.022M55.713 76.4533C56.9068 74.1889 59.6513 72.1949 61.4974 70.8355C61.8103 70.6052 63.845 69.2031 65.6319 68.2442M55.713 76.4533C55.5209 76.8177 55.3689 77.189 55.2673 77.5658C54.8191 79.228 55.9518 79.6354 57.4466 79.5265M67.5782 69.022C68.0912 68.5282 68.5378 67.9708 68.4265 67.576C68.4165 67.5405 68.4021 67.5092 68.3836 67.4819M67.5782 69.022C66.111 73.4991 61.1167 76.7583 57.4466 79.5265M67.5782 69.022C67.7153 68.6036 67.8217 68.1746 67.8932 67.7344M68.3836 67.4819C68.3563 67.4417 68.32 67.4102 68.2755 67.3867M68.3836 67.4819C68.2236 67.5728 68.06 67.6573 67.8932 67.7344M68.3836 67.4819C68.5319 67.3975 68.6769 67.3076 68.8182 67.2129M68.2755 67.3867C68.193 67.343 68.0822 67.327 67.9479 67.3346M68.2755 67.3867C68.1614 67.415 68.0473 67.438 67.9337 67.4547M68.2755 67.3867C68.4574 67.3415 68.6392 67.2825 68.8182 67.2129M67.9479 67.3346C67.7711 67.3445 67.5537 67.3954 67.3068 67.4781M67.9479 67.3346C67.9436 67.3743 67.9389 67.4144 67.9337 67.4547M67.9479 67.3346C67.9694 67.1385 67.9816 66.9489 67.9853 66.766M67.3068 67.4781C66.8311 67.6374 66.2461 67.9146 65.6319 68.2442M67.3068 67.4781C67.2365 67.472 67.1669 67.4628 67.0983 67.4501M67.3068 67.4781C67.5107 67.4956 67.7211 67.486 67.9337 67.4547M65.6319 68.2442C65.544 68.2424 65.4562 68.238 65.3684 68.2307M65.6319 68.2442C66.4048 68.2597 67.1772 68.0653 67.8932 67.7344M57.4466 79.5265C59.2662 79.3938 61.6223 78.496 62.3169 78.1648C65.9156 76.449 70.4366 73.4965 72.6186 70.0267C73.628 68.4216 74.8517 67.1072 76.114 65.6937C76.8621 64.8561 77.9449 63.8403 78.085 62.6791C78.1691 61.981 76.7697 60.9216 76.1774 60.7045C75.1112 60.3136 73.7121 59.1587 73.0383 58.2278C72.1813 57.044 71.3572 55.8242 70.5096 54.6357C69.7719 53.6012 69.1776 52.1376 68.1396 51.3655C68.0692 51.3131 68.0014 51.2596 67.9359 51.205M57.4466 79.5265C57.1327 79.7632 56.8285 79.9964 56.537 80.2264C54.7787 81.6139 52.8848 82.9179 51.2042 84.4211M67.9359 51.205C65.7744 49.4029 66.224 46.3986 65.8688 43.7356C65.5764 41.5425 65.5047 39.8558 64.8449 37.7781C64.6404 37.1344 64.6736 35.7283 63.9407 35.4167C63.3931 35.1839 62.7414 35.559 62.2159 36.0478M67.9359 51.205C67.8303 50.6838 67.7249 50.163 67.6238 49.6427C67.398 48.4796 66.8368 47.3795 66.6166 46.2595C66.3285 44.7938 65.9008 43.5368 66.0825 42.0204C66.2807 40.3662 66.4885 38.8903 66.3969 37.2166C66.3435 36.2423 66.2329 35.1107 66.4487 34.1524C66.599 33.4854 67.1817 32.0394 66.651 31.4224C66.1231 30.8088 63.6502 34.1547 63.4699 34.3783C63.1753 34.7434 62.6681 35.4338 62.2159 36.0478M67.9359 51.205C68.1949 52.4837 68.4549 53.7651 68.6531 55.05L68.6658 55.1316C68.9137 56.7356 69.0621 57.6952 67.3049 56.9742C66.1449 56.4983 64.9802 56.4808 63.8456 56.7623M62.2159 36.0478C61.8532 36.3853 61.5506 36.7769 61.3838 37.0602C61.0471 37.6318 61.5766 36.9161 62.2159 36.0478ZM63.8456 56.7623C63.3079 58.0497 62.6735 59.311 61.9853 60.5466M63.8456 56.7623C64.2395 55.8191 64.5815 54.8618 64.8548 53.8902C66.0759 49.5485 60.7439 53.5827 59.3663 54.5105C59.3473 54.5233 59.3283 54.5362 59.3092 54.5491M61.9853 60.5466C62.322 60.3556 62.6615 60.1801 62.9938 60.0209C65.4526 58.8423 68.3137 58.9446 70.5355 60.6358C72.1769 61.8853 72.1655 64.616 70.7713 65.9707C70.3196 66.4096 69.5951 66.9109 68.8182 67.2129M59.3092 54.5491C56.832 56.2257 54.5801 58.2795 52.4623 60.4579M59.3092 54.5491C59.277 53.4713 59.5327 52.4488 60.5719 51.5379C61.7801 50.4789 63.3298 50.0345 62.3871 48.9033C60.58 46.7349 58.02 48.0903 55.3677 50.8765M52.4623 60.4579C50.8843 62.0811 49.3808 63.7734 47.914 65.4305C46.7918 66.6982 45.6806 67.9952 44.6734 69.3583L44.6685 69.3649C44.6028 69.4533 44.0845 70.1506 44.6192 69.7162C46.8752 67.8836 48.6347 65.2306 50.4389 62.9904L50.5704 62.8271C51.205 62.0392 51.839 61.2522 52.4623 60.4579ZM52.4623 60.4579C53.7932 58.762 55.0758 57.0332 56.2135 55.1926C56.8284 54.1977 60.6198 49.5089 57.3481 50.2233C56.6751 50.3702 56.0149 50.5944 55.3677 50.8765M55.3677 50.8765C52.5094 52.1219 49.9069 54.4943 47.5989 56.3112C43.9433 59.1888 40.6457 62.4706 37.0324 65.3938C36.1184 66.1333 36.1468 65.9297 36.6753 65.107C37.8013 63.3539 39.1402 61.7385 40.4248 60.1025C43.8178 55.7815 47.3947 51.5119 50.0512 46.6777C50.7959 45.3226 52.2323 42.4167 49.5049 44.2956C46.2666 46.5265 43.736 49.907 41.197 52.8533C40.9799 53.1053 37.2926 57.0848 37.2735 57.0116C36.9421 55.742 38.2372 53.6891 38.3754 52.3925C38.4844 51.3695 37.9824 50.4566 36.9615 51.2823C35.4095 52.5376 34.3307 54.8824 33.4614 56.7572M55.3677 50.8765C50.46 56.0317 45.2363 66.0852 43.8814 67.7767C43.4794 68.2785 42.9433 68.6214 42.3282 68.8591M33.4614 56.7572C33.36 56.9759 33.2615 57.1882 33.1654 57.3916C32.4074 58.9959 30.9298 61.6554 31.3684 63.5352C31.699 64.952 33.4365 61.8682 33.5957 61.5728C34.2377 60.3814 35.4552 58.5979 35.0241 57.1474C34.7688 56.2885 34.165 56.3172 33.4614 56.7572ZM33.4614 56.7572C32.0892 57.6154 30.3378 60.0385 30.0537 60.4939C29.9637 60.6383 29.7663 61.0624 29.532 61.6484M29.532 61.6484C29.5297 61.654 29.5275 61.6597 29.5252 61.6654M29.532 61.6484C29.8868 61.9169 30.1294 62.5021 30.2201 62.9156C30.2368 62.9916 30.2527 63.0677 30.2679 63.144M29.532 61.6484C29.5243 61.6426 29.5166 61.6369 29.5088 61.6314M29.5252 61.6654C29.3458 62.1149 29.1453 62.6579 28.9549 63.242M29.5252 61.6654C29.8348 62.32 29.9344 63.1495 29.9386 63.8745M29.5252 61.6654C29.5198 61.654 29.5143 61.6427 29.5088 61.6314M28.9549 63.242C28.4987 64.6415 28.1002 66.2767 28.1891 67.4263M28.9549 63.242C29.4108 63.2478 29.3335 64.6365 29.3197 65.6044C29.3136 66.0338 29.3383 66.423 29.391 66.7753M28.9549 63.242C28.7518 63.2394 28.4428 63.5113 27.9752 64.2173C27.8651 64.3836 27.7463 64.6673 27.6307 64.9648M28.1891 67.4263C28.2417 68.1064 28.4649 68.6166 28.9475 68.8074M28.1891 67.4263C27.7153 66.9516 27.6721 66.0493 27.6449 65.4534C27.6377 65.2973 27.6324 65.1335 27.6307 64.9648M28.1891 67.4263C28.3214 67.5588 28.4872 67.658 28.6956 67.708C28.8717 67.7502 29.0216 67.711 29.1495 67.6132M28.9475 68.8074C29.1469 68.8862 29.3907 68.9105 29.6851 68.8698M28.9475 68.8074C29.0028 68.3648 29.0753 67.9519 29.1495 67.6132M28.9475 68.8074C28.8722 69.4102 28.8289 70.0681 28.8569 70.6687M29.6851 68.8698C29.7581 68.8597 29.8341 68.8456 29.9133 68.8273C30.02 68.8027 30.12 68.7655 30.2138 68.717M29.6851 68.8698C29.5639 68.3229 29.4954 67.7595 29.4732 67.2052M29.6851 68.8698C29.7707 69.2558 29.8826 69.6335 30.0232 69.9941M30.2138 68.717C30.3416 68.6509 30.4577 68.5637 30.5625 68.459M30.2138 68.717C30.3187 68.8362 30.4315 68.9444 30.5518 69.0424M30.2138 68.717C29.877 68.3343 29.623 67.8386 29.4732 67.2052M30.5625 68.459C31.2056 67.8164 31.4275 66.5106 31.3562 65.3211M30.5625 68.459C30.559 68.6539 30.5552 68.8484 30.5518 69.0424M30.5625 68.459C30.5845 67.2564 30.6008 66.0391 30.5006 64.8379M31.3562 65.3211C31.301 64.4005 31.0702 63.5494 30.7229 63.1293C30.559 62.931 30.4063 62.9669 30.2679 63.144M31.3562 65.3211C31.5709 65.9737 31.3454 66.8757 31.2303 67.4432C31.1492 67.8433 30.9152 68.4782 30.5998 69.0807M31.3562 65.3211C31.3055 65.1672 31.2304 65.0271 31.1235 64.9086C30.9189 64.6817 30.7058 64.6925 30.5006 64.8379M30.2679 63.144C30.1463 63.2996 30.0358 63.5642 29.9386 63.8745M30.2679 63.144C30.3795 63.7028 30.4531 64.2686 30.5006 64.8379M29.9386 63.8745C29.6639 64.7521 29.4958 65.9957 29.4845 66.1767C29.4764 66.3073 29.4707 66.4395 29.4677 66.5727M29.9386 63.8745C29.9401 64.1192 29.9307 64.352 29.9149 64.5622C29.9003 64.7558 29.8797 65.2532 29.808 65.7977M29.4677 66.5727C29.4633 66.7681 29.4645 66.9658 29.4717 67.1648M29.4677 66.5727C29.5539 66.3515 29.6707 66.0718 29.808 65.7977M29.4677 66.5727C29.4385 66.6478 29.4128 66.7162 29.391 66.7753M29.4717 67.1648C29.4722 67.1783 29.4727 67.1917 29.4732 67.2052M29.4717 67.1648C29.47 67.1687 29.4682 67.1724 29.4665 67.1762M29.4717 67.1648C29.6432 66.7881 29.7452 66.2748 29.808 65.7977M29.4732 67.2052C29.471 67.1955 29.4687 67.1859 29.4665 67.1762M30.0232 69.9941C30.0783 70.1351 30.1377 70.2736 30.2016 70.4089M30.0232 69.9941C29.6523 70.4671 29.2417 70.7731 28.8569 70.6687M30.0232 69.9941C30.2118 69.7536 30.3901 69.47 30.5496 69.1751M30.2016 70.4089C30.2279 70.4644 30.2549 70.5194 30.2827 70.5738C30.4423 70.8864 30.5069 70.2094 30.5324 69.7146M30.2016 70.4089C30.3065 70.1715 30.4172 69.9393 30.5324 69.7146M30.2016 70.4089C29.8997 71.092 29.6459 71.8171 29.4715 72.5236M30.5324 69.7146C30.5444 69.4816 30.5477 69.289 30.5482 69.2592C30.5486 69.2312 30.5491 69.2031 30.5496 69.1751M30.5324 69.7146C30.6188 69.5461 30.7077 69.3818 30.7987 69.2229M30.5496 69.1751C30.5503 69.1309 30.5511 69.0867 30.5518 69.0424M30.5496 69.1751C30.5665 69.1438 30.5833 69.1123 30.5998 69.0807M30.5518 69.0424C30.5677 69.0553 30.5837 69.0681 30.5998 69.0807M30.5006 64.8379C30.2475 65.0174 30.0064 65.4017 29.808 65.7977M29.5088 61.6314C29.2469 61.446 28.9259 61.4342 28.5613 61.7849C27.763 62.5526 27.6197 63.8641 27.6307 64.9648M29.5088 61.6314C29.3682 61.3438 29.186 61.0916 28.9519 60.8991C28.2329 60.3075 27.9315 61.479 27.8384 62.0266M27.6307 64.9648C27.6027 65.0369 27.5749 65.1098 27.5475 65.1821M29.1495 67.6132C29.2753 67.5169 29.3797 67.364 29.4665 67.1762M29.1495 67.6132C29.2097 67.3383 29.271 67.1122 29.325 66.9587C29.3391 66.9188 29.3614 66.8556 29.391 66.7753M29.4665 67.1762C29.4371 67.0482 29.4118 66.9146 29.391 66.7753M27.8384 62.0266C27.8336 62.0546 27.8294 62.0809 27.8257 62.1054C27.691 62.9935 27.5795 64.0734 27.5475 65.1821M27.8384 62.0266C27.3201 61.5914 26.7664 61.0143 26.3561 61.8208C26.1409 62.2438 24.4719 65.7072 25.1459 66.0561C25.1906 66.0792 25.7342 63.8021 25.796 63.6039C26.0092 62.9206 26.505 62.974 26.7536 63.6336C27.043 64.4011 26.8887 65.1908 27.0291 65.9661C27.1031 66.3744 27.3119 65.8025 27.5475 65.1821M27.8384 62.0266C27.9004 62.0786 27.9619 62.1286 28.0226 62.174M27.5475 65.1821C27.5015 66.772 27.6188 68.4211 28.0653 69.6483C28.2967 70.2844 28.5696 70.5908 28.8569 70.6687M28.8569 70.6687C28.8951 71.4895 29.0666 72.2033 29.4715 72.5236M30.5998 69.0807C30.6641 69.1308 30.7304 69.1782 30.7987 69.2229M29.4715 72.5236C29.7585 72.7505 30.1627 72.7798 30.7199 72.5095C31.8105 71.9804 32.4791 70.9111 33.0158 69.8562M29.4715 72.5236C28.9611 74.5919 29.132 76.5001 30.771 76.7273C31.441 76.8202 32.1203 76.6443 32.7818 76.2877M33.0158 69.8562C33.0562 69.7768 33.0958 69.6975 33.1349 69.6185C33.3159 69.252 34.1929 66.6045 32.8388 67.0297C32.192 67.2328 31.4454 68.0925 30.7987 69.2229M33.0158 69.8562C33.6216 69.8919 34.272 69.8585 34.9428 69.7842M33.0158 69.8562C32.1675 69.8063 31.4065 69.6209 30.7987 69.2229M32.7818 76.2877C34.3449 75.4454 35.8088 73.5948 36.8163 71.8993M32.7818 76.2877C32.6371 76.0078 32.5651 75.6647 32.5832 75.2624C32.6647 73.4477 33.6527 71.3672 34.9428 69.7842M32.7818 76.2877C33.1291 76.9599 33.8952 77.2685 34.8387 77.1615C35.0704 77.1352 35.2978 77.0883 35.5205 77.0232M36.8163 71.8993C37.0546 71.4984 37.2673 71.1061 37.4498 70.7379M36.8163 71.8993C37.022 71.5003 37.2369 71.1121 37.4498 70.7379M36.8163 71.8993C35.9889 73.5046 35.3121 75.2837 35.5205 77.0232M37.4498 70.7379C37.6747 70.2844 37.8536 69.8673 37.9778 69.5155C37.9841 69.4977 37.99 69.48 37.9957 69.4622M37.4498 70.7379C37.5662 70.5334 37.6821 70.333 37.7954 70.1374C37.8593 70.0272 37.9978 69.7797 38.191 69.4531M37.9957 69.4622C38.3206 68.4391 37.6154 67.405 36.5517 68.2062C35.9934 68.6268 35.4452 69.1678 34.9428 69.7842M37.9957 69.4622C38.0605 69.4591 38.1256 69.4561 38.191 69.4531M37.9957 69.4622C37.3112 69.4947 36.6586 69.5328 36.0878 69.6254C35.7025 69.6879 35.3194 69.7425 34.9428 69.7842M35.5205 77.0232C37.8397 76.346 39.664 73.6991 40.8125 71.8137C41.1244 71.3016 41.8247 70.0895 42.3282 68.8591M35.5205 77.0232C35.5453 77.2302 35.5827 77.4366 35.6338 77.6421C35.9105 78.7547 36.5183 79.3399 37.2787 79.5706M42.3282 68.8591C42.8348 67.6213 43.1422 66.365 42.6544 65.7845C41.4205 64.3159 39.1423 67.8448 38.191 69.4531M42.3282 68.8591C41.1161 69.3277 39.597 69.3882 38.191 69.4531M37.2787 79.5706C37.2174 79.8259 37.18 80.0799 37.1713 80.3302C37.083 82.8753 40.4635 82.0555 42.0636 81.4626M42.0636 81.4626C42.0927 81.9906 42.4516 82.3913 43.3106 82.5535C44.399 82.759 45.4314 82.61 46.4321 82.2908M46.4321 82.2908C47.1376 82.0658 47.8274 81.7562 48.5099 81.4266C48.9557 81.2113 50.9968 80.248 50.8936 79.5717C50.7787 78.8185 49.1659 79.3197 48.8716 79.4985C47.8361 80.1275 46.8879 81.1379 46.4321 82.2908ZM46.4321 82.2908C46.3729 82.4405 46.322 82.5926 46.2803 82.7466C45.4683 85.7449 48.6094 85.1374 50.5779 84.3091M50.5779 84.3091C51.0001 84.1314 51.3685 83.9435 51.6322 83.7789C52.0111 83.5424 53.8446 82.59 53.4696 81.8577C53.1024 81.1405 51.4275 82.4157 51.1569 82.658C50.0861 83.6171 50.0966 84.1077 50.5779 84.3091ZM50.5779 84.3091C50.7407 84.3772 50.9573 84.4122 51.2042 84.4211M51.2042 84.4211C51.947 84.4479 52.9632 84.2379 53.6092 83.9803C54.6809 83.553 55.9558 82.7782 57.1382 82.671C58.5974 82.5388 59.8766 82.4599 61.2266 81.7447C64.6003 79.9576 67.6546 77.2988 70.4127 74.697C73.8028 71.499 75.9359 66.9857 79.756 64.2486C80.3997 63.7874 80.6343 64.0605 80.5923 64.8063C80.495 66.5341 79.2188 67.9466 78.1399 69.1783C76.0242 71.5936 74.1599 74.6699 71.7503 76.7639C69.7755 78.4801 67.7142 80.1922 65.5407 81.6471C63.2504 83.1802 60.6257 83.2258 58.0333 83.8338C55.9667 84.3185 53.8689 84.5663 51.8535 85.2576C51.4787 85.3861 49.1014 86.4914 50.1619 85.4124C50.4974 85.0711 50.8459 84.7416 51.2042 84.4211ZM67.8932 67.7344C67.9057 67.6575 67.9171 67.5803 67.9275 67.5027C67.9296 67.4867 67.9317 67.4707 67.9337 67.4547M67.9853 66.766C68.0194 65.0726 67.3174 63.9479 66.3343 63.47M67.9853 66.766C67.7162 67.019 67.4174 67.2479 67.0983 67.4501M67.9853 66.766C68.3508 66.4224 68.6614 66.0341 68.8935 65.6075C69.5395 64.4197 69.9765 62.5864 69.1078 61.412M66.3343 63.47C65.6587 63.1416 64.8504 63.1186 64.0571 63.4263M66.3343 63.47C66.4028 63.3715 66.4733 63.2766 66.5449 63.1858C67.1008 62.4802 68.0914 61.6908 69.1078 61.412M66.3343 63.47C65.5503 64.5966 65.0338 66.1773 66.3557 67.1365C66.5818 67.3006 66.8329 67.4011 67.0983 67.4501M64.0571 63.4263C63.1396 63.7822 62.2421 64.5804 61.5928 65.86C60.8416 67.3407 62.3199 68.5189 63.7324 68.4916C64.2654 68.4813 64.8218 68.3914 65.3684 68.2307M64.0571 63.4263C64.071 63.3996 64.0849 63.3738 64.0986 63.349C64.8826 61.938 66.858 59.593 68.6509 60.9517C68.8321 61.0891 68.9833 61.2438 69.1078 61.412M64.0571 63.4263C63.4671 64.5603 62.7483 67.4584 64.3993 68.0277C64.7185 68.1378 65.0429 68.2036 65.3684 68.2307M65.3684 68.2307C65.972 68.0531 66.5635 67.7891 67.0983 67.4501M69.1078 61.412C69.849 61.2087 70.6039 61.277 71.2139 61.8475C72.5018 63.0519 70.9318 65.2271 70.0502 66.1675C69.6919 66.5498 69.2749 66.9066 68.8182 67.2129" stroke="#d0a3e1" stroke-width="6" stroke-linecap="round"/>
                        </svg>