<svg xmlns="http://www.w3.org/2000/svg" xmlns:xlink="http://www.w3.org/1999/xlink" width="350" zoomAndPan="magnify" viewBox="0 0 262.5 30.000001" height="40" preserveAspectRatio="xMidYMid meet" version="1.0"><defs><g/><clipPath id="6ca250f244"><path d="M 17.464844 3 L 50 3 L 50 25 L 17.464844 25 Z M 17.464844 3 " clip-rule="nonzero"/></clipPath><clipPath id="0a3fdb1aea"><path d="M 36 0 L 56.65625 0 L 56.65625 25 L 36 25 Z M 36 0 " clip-rule="nonzero"/></clipPath><clipPath id="d2b96962aa"><path d="M 23 15 L 36 15 L 36 27.582031 L 23 27.582031 Z M 23 15 " clip-rule="nonzero"/></clipPath><clipPath id="5710a35f0b"><path d="M 25 9 L 52 9 L 52 27.582031 L 25 27.582031 Z M 25 9 " clip-rule="nonzero"/></clipPath><clipPath id="ca2e3e096f"><path d="M 31 18 L 44 18 L 44 27.582031 L 31 27.582031 Z M 31 18 " clip-rule="nonzero"/></clipPath></defs><g clip-path="url(#6ca250f244)"><path fill="#004884" d="M 35.113281 5.605469 L 36.332031 7.46875 L 37.152344 8.71875 L 47.363281 24.308594 L 49.007812 24.308594 L 37.726562 7.097656 L 37.152344 6.21875 L 35.929688 4.359375 L 35.113281 3.109375 L 23.058594 21.5 L 19.226562 9.058594 L 17.46875 8.007812 L 22.179688 23.292969 L 22.492188 24.308594 L 22.855469 24.308594 L 23.40625 23.464844 Z M 35.113281 5.605469 " fill-opacity="1" fill-rule="evenodd"/></g><path fill="#004884" d="M 52.457031 10.628906 L 50.703125 11.679688 L 49.601562 15.261719 L 50.578125 16.75 Z M 52.457031 10.628906 " fill-opacity="1" fill-rule="evenodd"/><path fill="#004884" d="M 24.699219 15.261719 L 23.597656 11.679688 L 21.847656 10.628906 L 23.722656 16.75 Z M 24.699219 15.261719 " fill-opacity="1" fill-rule="evenodd"/><g clip-path="url(#0a3fdb1aea)"><path fill="#004884" d="M 55.078125 9.058594 L 51.246094 21.5 L 37.726562 0.875 L 37.152344 0 L 36.578125 0.875 L 36.289062 1.316406 L 37.152344 2.496094 L 50.898438 23.464844 L 51.449219 24.308594 L 51.8125 24.308594 L 52.121094 23.292969 L 56.835938 8.007812 Z M 55.078125 9.058594 " fill-opacity="1" fill-rule="evenodd"/></g><g clip-path="url(#d2b96962aa)"><path fill="#004884" d="M 35.113281 15.554688 L 29.378906 24.304688 L 29.375 24.308594 L 28.035156 26.347656 L 23.113281 26.351562 L 23.535156 27.714844 L 28.773438 27.714844 L 31.011719 24.308594 L 35.929688 16.800781 Z M 35.113281 15.554688 " fill-opacity="1" fill-rule="evenodd"/></g><g clip-path="url(#5710a35f0b)"><path fill="#004884" d="M 44.929688 24.308594 C 41.925781 19.730469 38.929688 15.15625 35.929688 10.578125 L 35.546875 9.988281 L 35.113281 9.324219 L 25.292969 24.308594 L 26.941406 24.308594 L 35.117188 11.828125 C 37.8125 15.941406 40.5625 20.136719 43.292969 24.304688 L 45.527344 27.710938 L 50.769531 27.710938 L 51.1875 26.34375 L 46.269531 26.34375 Z M 44.929688 24.308594 " fill-opacity="1" fill-rule="evenodd"/></g><g clip-path="url(#ca2e3e096f)"><path fill="#004884" d="M 31.21875 27.714844 L 43.085938 27.714844 L 37.152344 18.667969 Z M 37.152344 26.347656 L 33.753906 26.347656 L 37.152344 21.164062 L 40.554688 26.347656 Z M 37.152344 26.347656 " fill-opacity="1" fill-rule="evenodd"/></g><g fill="#004884" fill-opacity="1"><g transform="translate(61.984261, 25.076699)"><g><path d="M 1.65625 -15.046875 L 1.65625 0 L 4.28125 0 L 4.28125 -5.625 L 13.453125 -5.625 L 13.453125 -7.890625 L 4.28125 -7.890625 L 4.28125 -12.78125 L 14.890625 -12.78125 L 14.890625 -15.046875 Z M 1.65625 -15.046875 "/></g></g></g><g fill="#004884" fill-opacity="1"><g transform="translate(77.712532, 25.076699)"><g><path d="M 1.65625 0 L 4.28125 0 L 4.28125 -15.046875 L 1.65625 -15.046875 Z M 1.65625 0 "/></g></g></g><g fill="#004884" fill-opacity="1"><g transform="translate(83.62138, 25.076699)"><g><path d="M 0.609375 -15.046875 L 0.609375 -12.828125 L 7.671875 -12.828125 L 7.671875 0 L 10.3125 0 L 10.3125 -12.828125 L 17.375 -12.828125 L 17.375 -15.046875 Z M 0.609375 -15.046875 "/></g></g></g><g fill="#004884" fill-opacity="1"><g transform="translate(101.627237, 25.076699)"><g/></g></g><g fill="#004884" fill-opacity="1"><g transform="translate(106.84851, 25.076699)"><g><path d="M 4.28125 -2.25 L 4.28125 -6.40625 L 13.46875 -6.40625 L 13.46875 -8.65625 L 4.28125 -8.65625 L 4.28125 -12.78125 L 14.9375 -12.78125 L 14.9375 -15.046875 L 1.65625 -15.046875 L 1.65625 0 L 15.0625 0 L 15.0625 -2.25 Z M 4.28125 -2.25 "/></g></g></g><g fill="#004884" fill-opacity="1"><g transform="translate(122.963539, 25.076699)"><g><path d="M 1.65625 0 L 4.28125 0 L 4.28125 -10.484375 L 10.40625 0 L 11.359375 0 L 17.484375 -10.484375 L 17.484375 0 L 20.125 0 L 20.125 -15.046875 L 17.484375 -15.046875 L 10.890625 -3.703125 L 4.28125 -15.046875 L 1.65625 -15.046875 Z M 1.65625 0 "/></g></g></g><g fill="#004884" fill-opacity="1"><g transform="translate(144.729568, 25.076699)"><g><path d="M 1.65625 0 L 4.28125 0 L 4.28125 -5.421875 L 9.71875 -5.421875 C 12.953125 -5.421875 14.59375 -7.828125 14.59375 -10.234375 C 14.59375 -12.640625 12.953125 -15.046875 9.71875 -15.046875 L 1.65625 -15.046875 Z M 4.28125 -12.765625 L 9.5 -12.765625 C 11.15625 -12.765625 11.984375 -11.5 11.984375 -10.234375 C 11.984375 -8.953125 11.15625 -7.6875 9.5 -7.6875 L 4.28125 -7.6875 Z M 4.28125 -12.765625 "/></g></g></g><g fill="#004884" fill-opacity="1"><g transform="translate(160.522299, 25.076699)"><g><path d="M 18.234375 -7.515625 C 18.234375 -12.84375 13.671875 -15.453125 9.734375 -15.453125 C 5.828125 -15.453125 1.25 -12.84375 1.25 -7.515625 C 1.25 -2.1875 5.828125 0.40625 9.734375 0.40625 C 13.671875 0.40625 18.234375 -2.1875 18.234375 -7.515625 Z M 15.5625 -7.515625 C 15.5625 -3.875 12.421875 -2.0625 9.734375 -2.0625 C 7.0625 -2.0625 3.9375 -3.875 3.9375 -7.515625 C 3.9375 -11.171875 7.0625 -12.984375 9.734375 -12.984375 C 12.421875 -12.984375 15.5625 -11.171875 15.5625 -7.515625 Z M 15.5625 -7.515625 "/></g></g></g><g fill="#004884" fill-opacity="1"><g transform="translate(180.010741, 25.076699)"><g><path d="M 1.65625 0 L 4.28125 0 L 4.28125 -6.03125 L 9.171875 -6.03125 L 13.671875 0 L 16.96875 0 L 12.046875 -6.234375 C 14.265625 -6.828125 15.359375 -8.6875 15.359375 -10.53125 C 15.359375 -12.78125 13.75 -15.046875 10.484375 -15.046875 L 1.65625 -15.046875 Z M 4.28125 -12.765625 L 10.015625 -12.765625 C 11.75 -12.765625 12.640625 -11.640625 12.640625 -10.53125 C 12.640625 -9.40625 11.75 -8.3125 10.015625 -8.3125 L 4.28125 -8.3125 Z M 4.28125 -12.765625 "/></g></g></g><g fill="#004884" fill-opacity="1"><g transform="translate(197.694299, 25.076699)"><g><path d="M 1.65625 0 L 4.28125 0 L 4.28125 -15.046875 L 1.65625 -15.046875 Z M 1.65625 0 "/></g></g></g><g fill="#004884" fill-opacity="1"><g transform="translate(203.603147, 25.076699)"><g><path d="M 1.4375 -5.953125 C 1.4375 -1.640625 5.140625 0.53125 8.828125 0.53125 C 12.53125 0.53125 16.21875 -1.640625 16.21875 -5.953125 L 16.21875 -15.046875 L 13.59375 -15.046875 L 13.59375 -5.953125 C 13.59375 -3.328125 11.21875 -2.046875 8.828125 -2.046875 C 6.453125 -2.046875 4.0625 -3.328125 4.0625 -5.953125 L 4.0625 -15.046875 L 1.4375 -15.046875 Z M 1.4375 -5.953125 "/></g></g></g><g fill="#004884" fill-opacity="1"><g transform="translate(221.265212, 25.076699)"><g><path d="M 1.65625 0 L 4.28125 0 L 4.28125 -10.484375 L 10.40625 0 L 11.359375 0 L 17.484375 -10.484375 L 17.484375 0 L 20.125 0 L 20.125 -15.046875 L 17.484375 -15.046875 L 10.890625 -3.703125 L 4.28125 -15.046875 L 1.65625 -15.046875 Z M 1.65625 0 "/></g></g></g></svg>