<svg xmlns="http://www.w3.org/2000/svg" xmlns:xlink="http://www.w3.org/1999/xlink" width="500" zoomAndPan="magnify" viewBox="0 0 375 374.999991" height="500" preserveAspectRatio="xMidYMid meet" version="1.0"><defs><clipPath id="99f9c66931"><path d="M 56.144531 122 L 98 122 L 98 150 L 56.144531 150 Z M 56.144531 122 " clip-rule="nonzero"/></clipPath><clipPath id="8276759afb"><path d="M 80 118.226562 L 107.144531 118.226562 L 107.144531 150 L 80 150 Z M 80 118.226562 " clip-rule="nonzero"/></clipPath><clipPath id="ec24e5f3b4"><path d="M 63 138 L 81 138 L 81 154.226562 L 63 154.226562 Z M 63 138 " clip-rule="nonzero"/></clipPath><clipPath id="8336e1e016"><path d="M 66 130 L 100 130 L 100 154.226562 L 66 154.226562 Z M 66 130 " clip-rule="nonzero"/></clipPath><clipPath id="39d5d59cab"><path d="M 73 142 L 90 142 L 90 154.226562 L 73 154.226562 Z M 73 142 " clip-rule="nonzero"/></clipPath></defs><g clip-path="url(#99f9c66931)"><path fill="#000000" d="M 79.003906 125.507812 L 80.585938 127.925781 L 81.644531 129.554688 L 94.875 149.800781 L 97.003906 149.800781 L 82.390625 127.445312 L 81.644531 126.308594 L 80.066406 123.886719 L 79.003906 122.269531 L 63.390625 146.15625 L 58.425781 129.992188 L 56.152344 128.628906 L 62.253906 148.480469 L 62.65625 149.800781 L 63.125 149.800781 L 63.839844 148.707031 Z M 79.003906 125.507812 " fill-opacity="1" fill-rule="evenodd"/></g><path fill="#000000" d="M 101.472656 132.035156 L 99.199219 133.398438 L 97.773438 138.050781 L 99.039062 139.984375 Z M 101.472656 132.035156 " fill-opacity="1" fill-rule="evenodd"/><path fill="#000000" d="M 65.519531 138.050781 L 64.089844 133.398438 L 61.820312 132.035156 L 64.253906 139.984375 Z M 65.519531 138.050781 " fill-opacity="1" fill-rule="evenodd"/><g clip-path="url(#8276759afb)"><path fill="#000000" d="M 104.867188 129.992188 L 99.902344 146.15625 L 82.390625 119.363281 L 81.644531 118.226562 L 80.902344 119.363281 L 80.53125 119.9375 L 81.644531 121.46875 L 99.453125 148.707031 L 100.167969 149.800781 L 100.636719 149.800781 L 101.039062 148.480469 L 107.140625 128.628906 Z M 104.867188 129.992188 " fill-opacity="1" fill-rule="evenodd"/></g><g clip-path="url(#ec24e5f3b4)"><path fill="#000000" d="M 79.003906 138.429688 L 71.574219 149.796875 L 71.570312 149.800781 L 69.835938 152.449219 L 63.464844 152.453125 L 64.007812 154.226562 L 70.796875 154.226562 L 73.691406 149.800781 L 80.066406 140.050781 Z M 79.003906 138.429688 " fill-opacity="1" fill-rule="evenodd"/></g><g clip-path="url(#8336e1e016)"><path fill="#000000" d="M 91.722656 149.800781 C 87.832031 143.855469 83.953125 137.914062 80.066406 131.96875 L 79.566406 131.199219 L 79.003906 130.339844 L 66.28125 149.800781 L 68.417969 149.800781 L 79.011719 133.59375 C 82.503906 138.9375 86.0625 144.382812 89.601562 149.796875 L 92.496094 154.222656 L 99.285156 154.222656 L 99.828125 152.445312 L 93.457031 152.445312 Z M 91.722656 149.800781 " fill-opacity="1" fill-rule="evenodd"/></g><g clip-path="url(#39d5d59cab)"><path fill="#000000" d="M 73.960938 154.226562 L 89.332031 154.226562 L 81.644531 142.472656 Z M 81.644531 152.449219 L 77.246094 152.449219 L 81.644531 145.714844 L 86.050781 152.449219 Z M 81.644531 152.449219 " fill-opacity="1" fill-rule="evenodd"/></g></svg>