<svg version="1.1" id="Layer_1" xmlns="http://www.w3.org/2000/svg" xmlns:xlink="http://www.w3.org/1999/xlink" x="0px" y="0px"
	 width="100%" viewBox="0 0 80 80" enable-background="new 0 0 80 80" xml:space="preserve">
<path fill="#000000" opacity="1.000000" stroke="none" 
	d="
M54.000000,81.000000 
	C36.362324,81.000000 18.724648,81.000000 1.043486,81.000000 
	C1.043486,54.406143 1.043486,27.812197 1.043486,1.109125 
	C27.549759,1.109125 54.100117,1.109125 81.000000,1.109125 
	C81.000000,18.686026 81.000000,36.374355 80.759293,54.871056 
	C80.052101,55.230015 79.329796,54.862030 79.156990,54.319141 
	C75.889381,44.053169 58.708076,42.145035 50.809914,48.574783 
	C48.907829,50.123238 46.193268,50.673668 43.852348,51.683067 
	C43.427818,51.200642 43.003284,50.718212 42.578754,50.235783 
	C43.288742,48.414944 43.922543,46.559814 44.723614,44.779972 
	C46.774689,40.222839 49.503933,35.863728 50.799698,31.108702 
	C51.788185,27.481274 51.000072,23.369036 50.997856,19.472471 
	C50.994274,13.166059 41.821770,3.450257 35.453003,3.008368 
	C35.121750,2.985385 34.784718,3.032060 34.455296,2.998314 
	C21.733326,1.695056 13.306691,10.031610 14.995769,21.925032 
	C15.247896,23.700357 15.962500,25.639410 15.517695,27.239975 
	C14.329117,31.516905 15.716967,34.547840 18.228634,38.068329 
	C20.754194,41.608292 21.798122,46.205311 23.610683,50.630566 
	C10.897888,51.929504 1.796540,62.518093 3.644578,72.999123 
	C17.026449,72.999123 30.476845,72.992973 43.927223,73.004128 
	C46.744534,73.006470 52.895054,77.921280 54.000000,81.000000 
z"/>
<path fill="#4989C7" opacity="1.000000" stroke="none" 
	d="
M54.467941,81.000000 
	C52.895054,77.921280 46.744534,73.006470 43.927223,73.004128 
	C30.476845,72.992973 17.026449,72.999123 3.644578,72.999123 
	C1.796540,62.518093 10.897888,51.929504 23.610683,50.630566 
	C21.798122,46.205311 20.754194,41.608292 18.228634,38.068329 
	C15.716967,34.547840 14.329117,31.516905 15.517695,27.239975 
	C15.962500,25.639410 15.247896,23.700357 14.995769,21.925032 
	C13.306691,10.031610 21.733326,1.695056 34.455296,2.998314 
	C34.784718,3.032060 35.121750,2.985385 35.453003,3.008368 
	C41.821770,3.450257 50.994274,13.166059 50.997856,19.472471 
	C51.000072,23.369036 51.788185,27.481274 50.799698,31.108702 
	C49.503933,35.863728 46.774689,40.222839 44.723614,44.779972 
	C43.922543,46.559814 43.288742,48.414944 42.578754,50.235783 
	C43.003284,50.718212 43.427818,51.200642 43.852348,51.683067 
	C46.193268,50.673668 48.907829,50.123238 50.809914,48.574783 
	C58.708076,42.145035 75.889381,44.053169 79.156990,54.319141 
	C79.329796,54.862030 80.052101,55.230015 80.759293,55.339714 
	C81.000000,60.354931 81.000000,65.709862 80.776199,71.189949 
	C77.684929,74.078278 74.800819,76.824768 71.981720,79.636444 
	C71.757523,79.860062 71.983322,80.534874 72.000000,81.000000 
	C66.311958,81.000000 60.623920,81.000000 54.467941,81.000000 
M78.296158,67.440460 
	C80.913597,54.669724 70.460342,44.131130 58.676437,47.660583 
	C51.502499,49.809280 46.662647,56.533131 47.040848,63.825523 
	C47.416412,71.067047 53.039993,77.414001 60.267960,78.754074 
	C67.680870,80.128441 74.267639,76.220032 78.296158,67.440460 
M45.002571,28.614918 
	C44.932411,24.544306 45.563637,20.240795 42.001423,17.822598 
	C37.791294,19.654198 34.195179,22.058544 30.296009,22.747324 
	C21.003908,24.388758 20.946154,24.061483 20.997707,33.749481 
	C21.001240,34.413425 20.980463,35.078354 21.009077,35.741177 
	C21.289837,42.244713 27.525436,49.020905 33.100658,48.890022 
	C38.821766,48.755714 44.752346,42.113667 44.982136,35.532188 
	C45.051598,33.542637 44.999218,31.548828 45.002571,28.614918 
M45.145439,65.182938 
	C45.492702,61.598995 45.839962,58.015057 46.308640,53.178032 
	C44.293797,53.884689 42.395920,54.047405 41.209236,55.051029 
	C35.123020,60.198399 30.769621,60.290508 24.958372,55.186146 
	C24.043516,54.382580 22.764791,53.487476 21.656906,53.490833 
	C13.952260,53.514175 5.516454,62.853893 6.150033,71.004845 
	C17.890886,71.004845 29.678629,71.017509 41.466259,70.986832 
	C42.760078,70.983467 44.053249,70.731331 45.857555,70.540573 
	C45.639782,68.850937 45.457855,67.439415 45.145439,65.182938 
M30.820999,5.124236 
	C19.271599,7.751423 14.096424,16.357052 17.914503,24.204283 
	C21.344421,23.078516 24.499481,22.037502 27.658213,21.007755 
	C30.755182,19.998144 34.183922,19.535650 36.884529,17.881817 
	C42.012428,14.741523 44.650219,15.406716 46.392296,21.265059 
	C46.864090,22.851637 47.063419,24.519239 47.387802,26.149652 
	C47.970772,26.054438 48.553741,25.959225 49.136711,25.864010 
	C48.572628,21.937490 49.410160,16.440981 47.145565,14.419262 
	C42.760769,10.504727 38.891445,4.585397 30.820999,5.124236 
M30.298565,56.525291 
	C37.514786,57.545227 41.271935,54.498814 40.462044,47.671249 
	C35.505482,51.636742 30.454687,51.400002 25.452866,47.690838 
	C24.255640,52.317394 26.431831,54.522125 30.298565,56.525291 
z"/>
<path fill="#000000" opacity="1.000000" stroke="none" 
	d="
M72.491051,81.000000 
	C71.983322,80.534874 71.757523,79.860062 71.981720,79.636444 
	C74.800819,76.824768 77.684929,74.078278 80.776199,71.657555 
	C81.000000,74.917351 81.000000,77.834709 81.000000,81.000000 
	C78.329994,81.000000 75.656052,81.000000 72.491051,81.000000 
z"/>
<path fill="#96CAFC" opacity="1.000000" stroke="none" 
	d="
M78.175392,67.820213 
	C74.267639,76.220032 67.680870,80.128441 60.267960,78.754074 
	C53.039993,77.414001 47.416412,71.067047 47.040848,63.825523 
	C46.662647,56.533131 51.502499,49.809280 58.676437,47.660583 
	C70.460342,44.131130 80.913597,54.669724 78.175392,67.820213 
M60.934158,67.682701 
	C61.545044,69.372055 62.155933,71.061409 62.766823,72.750763 
	C63.525814,71.216118 64.825073,69.717903 64.931496,68.139267 
	C65.154114,64.836922 67.313721,65.263344 69.451965,64.908623 
	C70.627556,64.713585 71.655319,63.627468 72.749733,62.943111 
	C71.617432,62.295097 70.454773,61.051647 69.358353,61.107529 
	C65.645943,61.296745 64.842232,59.447681 64.886925,56.241341 
	C64.900703,55.252571 63.762230,54.247738 63.151348,53.250259 
	C62.443783,54.146927 61.087124,55.083881 61.139851,55.933361 
	C61.381512,59.826950 59.857410,61.390575 55.944767,61.139057 
	C55.093044,61.084305 54.150925,62.435787 53.250439,63.139606 
	C54.243721,63.754303 55.192566,64.462372 56.240925,64.961342 
	C57.732704,65.671364 59.297585,66.227806 60.934158,67.682701 
z"/>
<path fill="#FDFEFE" opacity="1.000000" stroke="none" 
	d="
M45.002609,29.085943 
	C44.999218,31.548828 45.051598,33.542637 44.982136,35.532188 
	C44.752346,42.113667 38.821766,48.755714 33.100658,48.890022 
	C27.525436,49.020905 21.289837,42.244713 21.009077,35.741177 
	C20.980463,35.078354 21.001240,34.413425 20.997707,33.749481 
	C20.946154,24.061483 21.003908,24.388758 30.296009,22.747324 
	C34.195179,22.058544 37.791294,19.654198 42.001423,17.822598 
	C45.563637,20.240795 44.932411,24.544306 45.002609,29.085943 
z"/>
<path fill="#014985" opacity="1.000000" stroke="none" 
	d="
M45.210682,65.605408 
	C45.457855,67.439415 45.639782,68.850937 45.857555,70.540573 
	C44.053249,70.731331 42.760078,70.983467 41.466259,70.986832 
	C29.678629,71.017509 17.890886,71.004845 6.150033,71.004845 
	C5.516454,62.853893 13.952260,53.514175 21.656906,53.490833 
	C22.764791,53.487476 24.043516,54.382580 24.958372,55.186146 
	C30.769621,60.290508 35.123020,60.198399 41.209236,55.051029 
	C42.395920,54.047405 44.293797,53.884689 46.308640,53.178032 
	C45.839962,58.015057 45.492702,61.598995 45.210682,65.605408 
z"/>
<path fill="#024A86" opacity="1.000000" stroke="none" 
	d="
M31.227531,5.089993 
	C38.891445,4.585397 42.760769,10.504727 47.145565,14.419262 
	C49.410160,16.440981 48.572628,21.937490 49.136711,25.864010 
	C48.553741,25.959225 47.970772,26.054438 47.387802,26.149652 
	C47.063419,24.519239 46.864090,22.851637 46.392296,21.265059 
	C44.650219,15.406716 42.012428,14.741523 36.884529,17.881817 
	C34.183922,19.535650 30.755182,19.998144 27.658213,21.007755 
	C24.499481,22.037502 21.344421,23.078516 17.914503,24.204283 
	C14.096424,16.357052 19.271599,7.751423 31.227531,5.089993 
z"/>
<path fill="#F6F9FC" opacity="1.000000" stroke="none" 
	d="
M29.941444,56.365047 
	C26.431831,54.522125 24.255640,52.317394 25.452866,47.690838 
	C30.454687,51.400002 35.505482,51.636742 40.462044,47.671249 
	C41.271935,54.498814 37.514786,57.545227 29.941444,56.365047 
z"/>
<path fill="#FFFFFF" opacity="1.000000" stroke="none" 
	d="
M60.882698,67.266281 
	C59.297585,66.227806 57.732704,65.671364 56.240925,64.961342 
	C55.192566,64.462372 54.243721,63.754303 53.250439,63.139603 
	C54.150925,62.435787 55.093044,61.084305 55.944767,61.139057 
	C59.857410,61.390575 61.381512,59.826950 61.139851,55.933361 
	C61.087124,55.083881 62.443783,54.146927 63.151344,53.250259 
	C63.762230,54.247738 64.900703,55.252571 64.886925,56.241341 
	C64.842232,59.447681 65.645943,61.296745 69.358353,61.107529 
	C70.454773,61.051647 71.617432,62.295097 72.749733,62.943111 
	C71.655319,63.627468 70.627556,64.713585 69.451965,64.908623 
	C67.313721,65.263344 65.154114,64.836922 64.931496,68.139267 
	C64.825073,69.717903 63.525814,71.216118 62.766823,72.750763 
	C62.155933,71.061409 61.545044,69.372055 60.882698,67.266281 
z"/>
</svg>