<svg class="svg-icon" style="width: 1em; height: 1em;vertical-align: middle;fill: currentColor;overflow: hidden;" viewBox="0 0 1024 1024" version="1.1" xmlns="http://www.w3.org/2000/svg"><path d="M924.1 829.6c0-0.1 0-0.3-0.1-0.4-1.2-7.1-3.3-13.8-6.1-20.2-44.8-135.3-155.3-240.8-293.8-278.5C701.4 490 754 409 754 315.7 754 181.7 645.4 73 511.3 73c-134 0-242.7 108.7-242.7 242.7 0 93.3 52.6 174.3 129.8 214.9C260 568.3 149.6 673.7 104.7 809.1c-2.8 6.4-4.9 13.1-6.1 20.2 0 0.1-0.1 0.3-0.1 0.4-0.8 4.6-1.2 9.4-1.2 14.3 0 47.3 38.4 85.7 85.7 85.7h656.7c47.3 0 85.7-38.3 85.7-85.7-0.1-4.9-0.5-9.7-1.3-14.4z"  /></svg>